<svg width="152" height="151" viewBox="0 0 152 151" fill="none" xmlns="http://www.w3.org/2000/svg">
<rect width="152" height="151" rx="8" fill="#FFDC61"/>
<mask id="mask0_1498_23355" style="mask-type:alpha" maskUnits="userSpaceOnUse" x="24" y="50" width="110" height="101">
<rect x="24" y="50" width="110" height="101" fill="#D9D9D9"/>
</mask>
<g mask="url(#mask0_1498_23355)">
<path d="M31.3601 145.791L68.8497 69.7107C72.8824 61.5269 84.5512 61.5269 88.5839 69.7107L126.074 145.791C129.021 151.772 124.668 158.769 118 158.769L39.4332 158.769C32.7656 158.769 28.4129 151.772 31.3601 145.791Z" fill="#4382FF"/>
<path d="M81.0992 63.443C80.5583 62.604 79.6146 62.0522 78.5443 62.0522C77.474 62.0522 76.5303 62.604 75.9894 63.443C68.06 64.5924 61.8684 71.006 61.1318 78.9942H50.7971C49.1284 78.9942 47.7819 80.339 47.7819 82.0056C47.7819 83.6722 49.1284 85.017 50.7971 85.017H96.0488V80.5688C96.0488 71.8565 89.558 64.6614 81.1107 63.4315L81.0992 63.443Z" fill="#FAA1DF"/>
<path d="M88.0976 78.5369C87.2062 74.7639 83.1259 71.9111 78.2228 71.9111C73.3197 71.9111 69.2509 74.7639 68.348 78.5369H88.0976Z" fill="#4382FF"/>
<ellipse cx="62.3968" cy="100.256" rx="4.06697" ry="6.36732" fill="white"/>
<ellipse cx="61.0412" cy="100.256" rx="2.71132" ry="4.54809" fill="#3F3F43"/>
<ellipse cx="75.0493" cy="100.256" rx="4.06697" ry="6.36732" fill="white"/>
<ellipse cx="73.6934" cy="100.256" rx="2.71132" ry="4.54809" fill="#3F3F43"/>
<path d="M64.2044 112.991C65.8613 112.991 69.8078 112.445 72.3384 110.262" stroke="#3F3F43" stroke-width="2" stroke-linecap="round"/>
</g>
<path fill-rule="evenodd" clip-rule="evenodd" d="M64.2114 30.5714C67.3913 31.5077 70.8513 31.1242 73.0305 30.4661L74.226 34.4248C71.4894 35.2512 67.1839 35.7574 63.0434 34.5383C58.7719 33.2805 54.7612 30.1946 52.9777 24.1103L56.946 22.9471C58.2979 27.5589 61.1625 29.6736 64.2114 30.5714Z" fill="#5696FC"/>
<path fill-rule="evenodd" clip-rule="evenodd" d="M37.5321 54.1307C40.3906 52.4522 42.4783 49.6664 43.4893 47.6269L47.1943 49.4636C45.9247 52.0247 43.348 55.5111 39.626 57.6966C35.7862 59.9513 30.7915 60.7649 25.134 57.9028L27.0007 54.2129C31.2891 56.3824 34.7913 55.74 37.5321 54.1307Z" fill="#EC715B"/>
<path fill-rule="evenodd" clip-rule="evenodd" d="M111.74 62.8445C109.364 60.0953 108.071 56.1037 108.445 50.7526L112.57 51.0412C112.253 55.5733 113.367 58.403 114.868 60.1403C115.619 61.0086 116.52 61.6667 117.505 62.1384C118.268 59.4838 119.854 57.0474 122.059 55.8822C123.383 55.1828 124.944 54.9502 126.524 55.5023C128.059 56.0382 129.355 57.223 130.412 58.8583C131.227 60.1191 131.403 61.5509 130.858 62.89C130.359 64.1155 129.361 65.0112 128.324 65.629C126.457 66.7414 123.864 67.3228 121.217 67.208C121.411 68.4473 121.883 69.6528 122.691 70.7104C124.162 72.6347 126.994 74.3929 132.176 74.7553L131.887 78.8805C125.869 78.4595 121.785 76.3344 119.406 73.2213C117.799 71.1185 117.085 68.714 116.991 66.3961C115.079 65.7157 113.237 64.5772 111.74 62.8445ZM121.537 63.0821C123.458 63.1418 125.171 62.6939 126.207 62.0765C126.801 61.7225 126.989 61.4264 127.028 61.3308C127.033 61.3187 127.035 61.3111 127.036 61.3076C127.035 61.3032 127.032 61.2879 127.022 61.2603C127.01 61.228 126.986 61.1752 126.939 61.1026C126.203 59.9642 125.561 59.546 125.161 59.4062C124.807 59.2826 124.439 59.3018 123.991 59.5384C123.108 60.0049 122.099 61.2677 121.537 63.0821Z" fill="#5CBF7B"/>
</svg>
