<svg width="152" height="151" viewBox="0 0 152 151" fill="none" xmlns="http://www.w3.org/2000/svg">
<rect width="152" height="151" rx="8" fill="#2F2F48"/>
<mask id="mask0_902_22605" style="mask-type:alpha" maskUnits="userSpaceOnUse" x="24" y="50" width="110" height="101">
<rect x="24" y="50" width="110" height="101" fill="#D9D9D9"/>
</mask>
<g mask="url(#mask0_902_22605)">
<path d="M31.36 145.791L68.8496 69.7107C72.8823 61.5269 84.5511 61.5269 88.5838 69.7107L126.073 145.791C129.021 151.772 124.668 158.769 118 158.769L39.4331 158.769C32.7654 158.769 28.4128 151.772 31.36 145.791Z" fill="#4382FF"/>
<path d="M81.0991 63.443C80.5582 62.604 79.6145 62.0522 78.5442 62.0522C77.4739 62.0522 76.5302 62.604 75.9893 63.443C68.0598 64.5924 61.8682 71.006 61.1317 78.9942H50.797C49.1282 78.9942 47.7817 80.339 47.7817 82.0056C47.7817 83.6722 49.1282 85.017 50.797 85.017H96.0487V80.5688C96.0487 71.8565 89.5579 64.6614 81.1106 63.4315L81.0991 63.443Z" fill="#FAA1DF"/>
<path d="M88.0973 78.5369C87.2058 74.7639 83.1256 71.9111 78.2225 71.9111C73.3193 71.9111 69.2506 74.7639 68.3477 78.5369H88.0973Z" fill="#4382FF"/>
<ellipse cx="62.3966" cy="100.256" rx="4.06697" ry="6.36732" fill="white"/>
<ellipse cx="61.0409" cy="100.256" rx="2.71132" ry="4.54809" fill="#3F3F43"/>
<ellipse cx="75.0494" cy="100.256" rx="4.06697" ry="6.36732" fill="white"/>
<ellipse cx="73.6937" cy="100.256" rx="2.71132" ry="4.54809" fill="#3F3F43"/>
<path d="M64.2041 112.991C65.861 112.991 69.8075 112.445 72.338 110.262" stroke="#3F3F43" stroke-width="2" stroke-linecap="round"/>
</g>
<path fill-rule="evenodd" clip-rule="evenodd" d="M64.2114 30.5714C67.3913 31.5077 70.8513 31.1242 73.0305 30.4661L74.226 34.4248C71.4894 35.2512 67.1839 35.7574 63.0434 34.5383C58.7719 33.2805 54.7612 30.1946 52.9777 24.1103L56.946 22.9471C58.2979 27.5589 61.1625 29.6736 64.2114 30.5714Z" fill="#FFDC61"/>
<path fill-rule="evenodd" clip-rule="evenodd" d="M37.5321 54.1307C40.3906 52.4522 42.4783 49.6664 43.4893 47.6269L47.1943 49.4636C45.9247 52.0247 43.348 55.5111 39.626 57.6966C35.7862 59.9513 30.7915 60.7649 25.134 57.9028L27.0007 54.2129C31.2891 56.3824 34.7913 55.74 37.5321 54.1307Z" fill="#EC715B"/>
<path fill-rule="evenodd" clip-rule="evenodd" d="M111.74 62.8446C109.364 60.0954 108.071 56.1038 108.445 50.7527L112.57 51.0414C112.253 55.5734 113.367 58.4031 114.868 60.1405C115.619 61.0087 116.52 61.6669 117.505 62.1385C118.268 59.4839 119.854 57.0475 122.059 55.8823C123.383 55.1829 124.944 54.9503 126.524 55.5024C128.059 56.0383 129.355 57.2232 130.412 58.8585C131.227 60.1192 131.403 61.551 130.858 62.8901C130.359 64.1156 129.361 65.0113 128.324 65.6291C126.457 66.7415 123.864 67.3229 121.217 67.2081C121.411 68.4474 121.883 69.6529 122.691 70.7105C124.162 72.6349 126.994 74.393 132.176 74.7554L131.887 78.8806C125.869 78.4596 121.785 76.3345 119.406 73.2214C117.799 71.1187 117.085 68.7141 116.991 66.3962C115.079 65.7158 113.237 64.5773 111.74 62.8446ZM121.537 63.0822C123.458 63.1419 125.171 62.6941 126.207 62.0766C126.801 61.7226 126.989 61.4265 127.028 61.3309C127.033 61.3188 127.035 61.3112 127.036 61.3078C127.035 61.3033 127.032 61.288 127.022 61.2604C127.01 61.2281 126.986 61.1754 126.939 61.1027C126.203 59.9643 125.561 59.5461 125.161 59.4063C124.807 59.2827 124.439 59.302 123.991 59.5386C123.108 60.005 122.099 61.2678 121.537 63.0822Z" fill="#5CBF7B"/>
</svg>
