<svg width="152" height="151" viewBox="0 0 152 151" fill="none" xmlns="http://www.w3.org/2000/svg">
<rect width="152" height="151" rx="8" fill="#5CBF7B"/>
<mask id="mask0_1498_23374" style="mask-type:alpha" maskUnits="userSpaceOnUse" x="22" y="47" width="114" height="104">
<rect x="22" y="47" width="114" height="104" fill="#D9D9D9"/>
</mask>
<g mask="url(#mask0_1498_23374)">
<path d="M92.3874 78.723C103.949 71.4666 118.018 83.2745 112.883 95.9147C126.405 97.7874 129.588 115.872 117.532 122.253C126.683 132.37 117.497 148.279 104.157 145.409C104.66 159.038 87.3914 165.323 79.0128 154.556C70.6342 165.323 53.3652 159.038 53.8683 145.409C40.5284 148.27 31.3344 132.37 40.4937 122.253C28.4288 115.872 31.6207 97.7874 45.1427 95.9147C39.9993 83.2745 54.0764 71.4753 65.6382 78.723C69.8276 65.7447 88.2068 65.7447 92.3961 78.723H92.3874Z" fill="#FFDC61"/>
<ellipse cx="62.6415" cy="107.207" rx="4.6354" ry="7.21063" fill="white"/>
<ellipse cx="61.0961" cy="107.207" rx="3.09027" ry="5.15045" fill="#3F3F43"/>
<ellipse cx="77.0612" cy="107.207" rx="4.6354" ry="7.21063" fill="white"/>
<ellipse cx="75.5158" cy="107.207" rx="3.09027" ry="5.15045" fill="#3F3F43"/>
<path fill-rule="evenodd" clip-rule="evenodd" d="M61.5887 117.506C61.0372 118.262 60.4743 119.024 59.8431 119.718L59.8374 119.712C58.2112 121.503 56.5054 122.896 55.2999 123.618C54.8792 123.868 54.919 124.482 55.3568 124.699C57.7904 125.898 60.5766 126.62 64.8469 126.177C67.3182 125.923 68.4939 124.611 69.0088 123.203C69.5237 124.611 70.6994 125.923 73.1707 126.177C77.441 126.62 80.2271 125.898 82.6608 124.699C83.0986 124.482 83.1384 123.868 82.7176 123.618C81.5122 122.896 79.8064 121.503 78.1802 119.712L78.1745 119.718C77.5433 119.024 76.9804 118.262 76.4288 117.506C75.9853 116.897 74.9505 115.891 73.0001 116.01C70.6503 116.15 69.5075 117.741 69.0088 119.04C68.5101 117.741 67.3673 116.15 65.0174 116.01C63.0671 115.891 62.0323 116.897 61.5887 117.506Z" fill="#EC715B"/>
</g>
<path d="M57.8574 22.5808C58.6548 24.4217 62.0013 30.9535 71.3908 36.8969C71.8474 37.1848 71.7595 37.8738 71.2456 38.0345L61.3682 41.2376C61.3682 41.2376 61.0283 41.2724 60.8786 41.1947C59.1604 40.2654 49.7372 33.8305 47.8934 25.2726C47.8245 24.9447 48.0345 24.6262 48.3531 24.5415L57.1118 22.2218C57.4167 22.1419 57.7343 22.2948 57.8574 22.5808Z" fill="#DDE4F9"/>
<path d="M94.9228 38.7613C93.5109 40.1865 88.0195 45.0556 77.112 47.1803C76.582 47.2825 76.4135 47.9563 76.8339 48.2929L84.8718 54.8666C84.8718 54.8666 85.1758 55.0225 85.3435 55.0045C87.2819 54.7632 98.3994 52.1929 103.227 44.8902C103.411 44.6097 103.331 44.2368 103.065 44.042L95.7479 38.6979C95.4929 38.5126 95.1415 38.5396 94.9228 38.7613Z" fill="white"/>
</svg>
