<svg width="240" height="448" viewBox="0 0 240 448" fill="none" xmlns="http://www.w3.org/2000/svg">
<path d="M163.483 0H191L139.517 266H112L163.483 0Z" fill="#E8E8EB"/>
<path d="M0 256C0 250.477 4.47715 246 10 246H230C235.523 246 240 250.477 240 256V448H0V256Z" fill="#5CBF7B"/>
<rect x="81" y="256" width="79" height="10" rx="5" fill="white"/>
<path d="M110.483 266H138L86.5169 0H59L110.483 266Z" fill="#F0F0F3"/>
<mask id="mask0_1134_10996" style="mask-type:alpha" maskUnits="userSpaceOnUse" x="69" y="275" width="171" height="173">
<rect x="69" y="275.982" width="171" height="172.018" fill="#D9D9D9"/>
</mask>
<g mask="url(#mask0_1134_10996)">
<path d="M206.293 327.393C228.155 313.681 254.756 335.994 245.047 359.88C270.615 363.419 276.634 397.593 253.837 409.65C271.14 428.768 253.772 458.83 228.548 453.408C229.499 479.161 196.846 491.038 181.003 470.691C165.161 491.038 132.508 479.161 133.459 453.408C108.235 458.814 90.8507 428.768 108.169 409.65C85.3565 397.593 91.3919 363.419 116.96 359.88C107.235 335.994 133.852 313.698 155.714 327.393C163.635 302.869 198.388 302.869 206.309 327.393H206.293Z" fill="#FFDC61"/>
<ellipse cx="149.943" cy="380.96" rx="8.78206" ry="13.661" fill="white"/>
<ellipse cx="147.016" cy="380.96" rx="5.85471" ry="9.75784" fill="#3F3F43"/>
<ellipse cx="177.263" cy="380.96" rx="8.78206" ry="13.661" fill="white"/>
<ellipse cx="174.335" cy="380.96" rx="5.85471" ry="9.75784" fill="#3F3F43"/>
<path fill-rule="evenodd" clip-rule="evenodd" d="M147.949 400.471C146.904 401.904 145.837 403.347 144.642 404.662L144.631 404.651C141.55 408.044 138.318 410.684 136.034 412.052C135.237 412.526 135.313 413.689 136.142 414.099C140.753 416.372 146.031 417.74 154.122 416.899C158.804 416.419 161.031 413.932 162.007 411.264C162.982 413.932 165.21 416.419 169.892 416.899C177.982 417.74 183.26 416.372 187.871 414.099C188.701 413.689 188.776 412.526 187.979 412.052C185.695 410.684 182.463 408.044 179.382 404.651L179.372 404.662C178.176 403.347 177.109 401.904 176.064 400.471C175.224 399.318 173.263 397.412 169.568 397.638C165.117 397.903 162.951 400.917 162.007 403.379C161.062 400.917 158.897 397.903 154.445 397.638C150.75 397.412 148.789 399.318 147.949 400.471Z" fill="#EC715B"/>
</g>
</svg>
