<svg width="241" height="448" viewBox="0 0 241 448" fill="none" xmlns="http://www.w3.org/2000/svg">
<path d="M163.483 0H191L139.517 266H112L163.483 0Z" fill="#E8E8EB"/>
<path d="M0 256C0 250.477 4.47715 246 10 246H230C235.523 246 240 250.477 240 256V448H0V256Z" fill="#FFDC61"/>
<rect x="81" y="256" width="79" height="10" rx="5" fill="white"/>
<path d="M110.483 266H138L86.5169 0H59L110.483 266Z" fill="#F0F0F3"/>
<mask id="mask0_1134_10995" style="mask-type:alpha" maskUnits="userSpaceOnUse" x="51" y="276" width="190" height="172">
<rect x="51" y="276" width="189.2" height="172" fill="#D9D9D9"/>
</mask>
<g mask="url(#mask0_1134_10995)">
<path d="M80.8414 460.97L145.598 326.115C155.402 305.699 184.474 305.699 194.277 326.116L259.031 460.972C261.9 466.947 257.545 473.868 250.918 473.868L88.9544 473.866C82.3266 473.866 77.9724 466.945 80.8414 460.97Z" fill="#5696FC"/>
<path d="M173.681 300.069C172.73 298.59 171.072 297.618 169.19 297.618C167.309 297.618 165.65 298.59 164.699 300.069C150.761 302.094 139.877 313.395 138.582 327.47L120.415 327.47C117.482 327.47 115.115 329.839 115.115 332.776C115.115 335.713 117.482 338.082 120.415 338.082L199.96 338.083L199.96 330.245C199.96 314.894 188.55 302.216 173.701 300.049L173.681 300.069Z" fill="#FAA1DF"/>
<path d="M186.907 327.641C185.316 320.951 178.035 315.893 169.285 315.893C160.536 315.893 153.275 320.951 151.663 327.64L186.907 327.641Z" fill="#5696FC"/>
<ellipse cx="144.228" cy="366.477" rx="7.72838" ry="12.0997" fill="white"/>
<ellipse cx="141.652" cy="366.478" rx="5.15226" ry="8.64264" fill="#3F3F43"/>
<ellipse cx="168.271" cy="366.478" rx="7.72838" ry="12.0997" fill="white"/>
<ellipse cx="165.695" cy="366.478" rx="5.15226" ry="8.64264" fill="#3F3F43"/>
<path d="M147.55 390C150.678 390 158.129 389.162 162.906 385.812" stroke="#3F3F43" stroke-width="3.5" stroke-linecap="round"/>
</g>
</svg>
