<svg width="152" height="151" viewBox="0 0 152 151" fill="none" xmlns="http://www.w3.org/2000/svg">
<rect width="152" height="151" rx="8" fill="white"/>
<mask id="mask0_1498_23320" style="mask-type:alpha" maskUnits="userSpaceOnUse" x="22" y="47" width="114" height="104">
<rect x="22" y="47" width="114" height="104" fill="#D9D9D9"/>
</mask>
<g mask="url(#mask0_1498_23320)">
<path d="M92.3874 78.723C103.949 71.4666 118.018 83.2745 112.883 95.9147C126.405 97.7874 129.588 115.872 117.532 122.253C126.683 132.37 117.497 148.279 104.157 145.409C104.66 159.038 87.3914 165.323 79.0128 154.556C70.6342 165.323 53.3652 159.038 53.8683 145.409C40.5284 148.27 31.3344 132.37 40.4937 122.253C28.4288 115.872 31.6207 97.7874 45.1427 95.9147C39.9993 83.2745 54.0764 71.4753 65.6382 78.723C69.8276 65.7447 88.2068 65.7447 92.3961 78.723H92.3874Z" fill="#F0F0F3"/>
<ellipse cx="62.6415" cy="107.207" rx="4.6354" ry="7.21063" fill="white"/>
<ellipse cx="61.0961" cy="107.207" rx="3.09027" ry="5.15045" fill="#9E9EA9"/>
<ellipse cx="77.0605" cy="107.207" rx="4.6354" ry="7.21063" fill="white"/>
<ellipse cx="75.5151" cy="107.207" rx="3.09027" ry="5.15045" fill="#9E9EA9"/>
<path fill-rule="evenodd" clip-rule="evenodd" d="M61.5887 117.506C61.0372 118.262 60.4743 119.024 59.8431 119.718L59.8374 119.712C58.2112 121.503 56.5054 122.896 55.2999 123.618C54.8792 123.868 54.919 124.482 55.3568 124.699C57.7904 125.898 60.5766 126.62 64.8469 126.177C67.3182 125.923 68.4939 124.611 69.0088 123.203C69.5237 124.611 70.6994 125.923 73.1707 126.177C77.441 126.62 80.2271 125.898 82.6608 124.699C83.0986 124.482 83.1384 123.868 82.7176 123.618C81.5122 122.896 79.8064 121.503 78.1802 119.712L78.1745 119.718C77.5433 119.024 76.9804 118.262 76.4288 117.506C75.9853 116.897 74.9505 115.891 73.0001 116.01C70.6503 116.15 69.5075 117.741 69.0088 119.04C68.5101 117.741 67.3673 116.15 65.0174 116.01C63.0671 115.891 62.0323 116.897 61.5887 117.506Z" fill="#9E9EA9"/>
</g>
</svg>
