<svg width="152" height="151" viewBox="0 0 152 151" fill="none" xmlns="http://www.w3.org/2000/svg">
<rect width="152" height="151" rx="8" fill="white"/>
<mask id="mask0_902_22427" style="mask-type:alpha" maskUnits="userSpaceOnUse" x="24" y="50" width="110" height="101">
<rect x="24" y="50" width="110" height="101" fill="#D9D9D9"/>
</mask>
<g mask="url(#mask0_902_22427)">
<path d="M31.36 145.791L68.8496 69.7107C72.8823 61.5269 84.5511 61.5269 88.5838 69.7107L126.073 145.791C129.021 151.772 124.668 158.769 118 158.769L39.4331 158.769C32.7654 158.769 28.4128 151.772 31.36 145.791Z" fill="#DBDBE0"/>
<path d="M81.0991 63.443C80.5582 62.604 79.6145 62.0522 78.5442 62.0522C77.4739 62.0522 76.5302 62.604 75.9893 63.443C68.0598 64.5924 61.8682 71.006 61.1317 78.9942H50.797C49.1282 78.9942 47.7817 80.339 47.7817 82.0056C47.7817 83.6722 49.1282 85.017 50.797 85.017H96.0487V80.5688C96.0487 71.8565 89.5579 64.6614 81.1106 63.4315L81.0991 63.443Z" fill="#E8E8EB"/>
<path d="M88.0978 78.5369C87.2063 74.7639 83.1261 71.9111 78.223 71.9111C73.3198 71.9111 69.251 74.7639 68.3481 78.5369H88.0978Z" fill="#DBDBE0"/>
<ellipse cx="62.3966" cy="100.256" rx="4.06697" ry="6.36732" fill="white"/>
<ellipse cx="61.0409" cy="100.256" rx="2.71132" ry="4.54809" fill="#878793"/>
<ellipse cx="75.0489" cy="100.256" rx="4.06697" ry="6.36732" fill="white"/>
<ellipse cx="73.6933" cy="100.256" rx="2.71132" ry="4.54809" fill="#878793"/>
<path d="M64.2046 112.991C65.8615 112.991 69.808 112.445 72.3385 110.262" stroke="#878793" stroke-width="2" stroke-linecap="round"/>
</g>
</svg>
