<svg width="152" height="151" viewBox="0 0 152 151" fill="none" xmlns="http://www.w3.org/2000/svg">
<rect width="152" height="151" rx="8" fill="white"/>
<mask id="mask0_1498_23336" style="mask-type:alpha" maskUnits="userSpaceOnUse" x="24" y="50" width="110" height="101">
<rect x="24" y="50" width="110" height="101" fill="#D9D9D9"/>
</mask>
<g mask="url(#mask0_1498_23336)">
<path d="M31.3601 145.791L68.8497 69.7107C72.8824 61.5269 84.5512 61.5269 88.5839 69.7107L126.074 145.791C129.021 151.772 124.668 158.769 118 158.769L39.4332 158.769C32.7656 158.769 28.4129 151.772 31.3601 145.791Z" fill="#E1E1E5"/>
<path d="M81.099 63.443C80.5581 62.604 79.6144 62.0522 78.5441 62.0522C77.4738 62.0522 76.5301 62.604 75.9892 63.443C68.0598 64.5924 61.8682 71.006 61.1316 78.9942H50.7969C49.1282 78.9942 47.7817 80.339 47.7817 82.0056C47.7817 83.6722 49.1282 85.017 50.7969 85.017H96.0487V80.5688C96.0487 71.8565 89.5578 64.6614 81.1105 63.4315L81.099 63.443Z" fill="#E8E8EB"/>
<path d="M88.0978 78.5369C87.2063 74.7639 83.1261 71.9111 78.223 71.9111C73.3198 71.9111 69.251 74.7639 68.3481 78.5369H88.0978Z" fill="#E1E1E5"/>
<ellipse cx="62.3968" cy="100.256" rx="4.06697" ry="6.36732" fill="white"/>
<ellipse cx="61.0411" cy="100.256" rx="2.71132" ry="4.54809" fill="#878793"/>
<ellipse cx="75.049" cy="100.256" rx="4.06697" ry="6.36732" fill="white"/>
<ellipse cx="73.6934" cy="100.256" rx="2.71132" ry="4.54809" fill="#878793"/>
<path d="M64.2045 112.991C65.8614 112.991 69.8079 112.445 72.3384 110.262" stroke="#878793" stroke-width="2" stroke-linecap="round"/>
</g>
</svg>
