<svg width="24" height="24" viewBox="0 0 24 24" fill="none" xmlns="http://www.w3.org/2000/svg">
<path d="M6.76005 22H17.24C20 22 21.1 20.31 21.23 18.25L21.75 9.99C21.89 7.83 20.17 6 18 6C17.39 6 16.83 5.65 16.55 5.11L15.83 3.66C15.37 2.75 14.17 2 13.15 2H10.86C9.83005 2 8.63005 2.75 8.17005 3.66L7.45005 5.11C7.17005 5.65 6.61005 6 6.00005 6C3.83005 6 2.11005 7.83 2.25005 9.99L2.77005 18.25C2.89005 20.31 4.00005 22 6.76005 22Z" stroke="#B2B2BC" stroke-width="1.5" stroke-linecap="round" stroke-linejoin="round"/>
<path d="M10.4999 8H13.4999" stroke="#B2B2BC" stroke-width="1.5" stroke-linecap="round" stroke-linejoin="round"/>
<path d="M11.9999 18C13.7899 18 15.2499 16.54 15.2499 14.75C15.2499 12.96 13.7899 11.5 11.9999 11.5C10.2099 11.5 8.74988 12.96 8.74988 14.75C8.74988 16.54 10.2099 18 11.9999 18Z" stroke="#B2B2BC" stroke-width="1.5" stroke-linecap="round" stroke-linejoin="round"/>
</svg>
