<svg width="225" height="101" viewBox="0 0 225 101" fill="none" xmlns="http://www.w3.org/2000/svg">
<rect width="225" height="101" rx="8" fill="#F0F0F3"/>
<path fill-rule="evenodd" clip-rule="evenodd" d="M47 33C43.6863 33 41 35.6863 41 39V52.1444C41 55.4582 43.6863 58.1444 47 58.1444H93.2178L104.859 65.633C105.634 66.1312 106.613 65.4062 106.362 64.52L104.56 58.1444H105.567C108.88 58.1444 111.567 55.4582 111.567 52.1444V39C111.567 35.6863 108.88 33 105.567 33H47Z" fill="white"/>
<path d="M53.1667 49.2228H54.5294V46.3417C54.5294 45.5046 54.4126 44.5994 54.3445 43.8305H54.3931L55.1231 45.3684L57.2061 49.2228H58.6758V42.0201H57.3034V44.8914C57.3034 45.709 57.4202 46.6726 57.4981 47.4221H57.4494L56.7194 45.8648L54.6267 42.0201H53.1667V49.2228Z" fill="#E1E1E5"/>
<path d="M63.3188 49.359C65.2266 49.359 66.5308 47.938 66.5308 45.5922C66.5308 43.2562 65.2266 41.8936 63.3188 41.8936C61.4014 41.8936 60.0971 43.2465 60.0971 45.5922C60.0971 47.938 61.4014 49.359 63.3188 49.359ZM63.3188 48.1132C62.2384 48.1132 61.5668 47.1301 61.5668 45.5922C61.5668 44.0544 62.2384 43.1297 63.3188 43.1297C64.3895 43.1297 65.0708 44.0544 65.0708 45.5922C65.0708 47.1301 64.3895 48.1132 63.3188 48.1132Z" fill="#E1E1E5"/>
<path d="M70.1526 49.2228H71.5931V42.0201H70.1526V49.2228Z" fill="#E1E1E5"/>
<path d="M73.3653 49.2228H74.6501V46.2152C74.6501 45.5338 74.543 44.5313 74.4652 43.85H74.5041L75.0881 45.5436L76.1977 48.5804H77.0251L78.1347 45.5436L78.7284 43.85H78.7771C78.6992 44.5313 78.5824 45.5338 78.5824 46.2152V49.2228H79.8964V42.0201H78.3001L77.1029 45.3976C76.9569 45.8453 76.8304 46.3125 76.6649 46.7797H76.626C76.4703 46.3125 76.3437 45.8453 76.1782 45.3976L74.9519 42.0201H73.3653V49.2228Z" fill="#E1E1E5"/>
<path d="M80.7387 49.2228H82.1987L83.2304 45.4754C83.4446 44.726 83.649 43.8986 83.8436 43.12H83.8826C84.087 43.8889 84.2914 44.726 84.5055 45.4754L85.5372 49.2228H87.0459L84.7391 42.0201H83.0455L80.7387 49.2228ZM82.1695 47.3734H85.5956V46.2638H82.1695V47.3734Z" fill="#E1E1E5"/>
<path d="M90.8324 49.359C91.8252 49.359 92.6817 48.9794 93.1684 48.4928V45.2516H90.5988V46.4293H91.8836V47.8504C91.6792 48.0158 91.3288 48.1132 90.9784 48.1132C89.5671 48.1132 88.8468 47.1788 88.8468 45.602C88.8468 44.0641 89.6741 43.1297 90.8811 43.1297C91.5235 43.1297 91.9323 43.3925 92.2924 43.7332L93.0516 42.8085C92.5844 42.3413 91.8641 41.8936 90.8324 41.8936C88.9149 41.8936 87.3771 43.2757 87.3771 45.6506C87.3771 48.0548 88.876 49.359 90.8324 49.359Z" fill="#E1E1E5"/>
<path d="M94.714 49.2228H99.24V48.0158H96.1545V46.0984H98.6755V44.8817H96.1545V43.2173H99.1329V42.0201H94.714V49.2228Z" fill="#E1E1E5"/>
<path fill-rule="evenodd" clip-rule="evenodd" d="M53.0045 49.3846V41.8575H54.7231L56.8666 45.7954L57.2499 46.6139C57.1927 46.048 57.1412 45.4376 57.1412 44.891V41.8575H58.838V49.3846H57.1093L54.9764 45.4376L54.5829 44.6082C54.6383 45.1718 54.6916 45.7729 54.6916 46.3413V49.3846H53.0045ZM54.3768 44.174C54.3708 44.1128 54.365 44.0522 54.3593 43.9923C54.3549 43.9452 54.3506 43.8985 54.3464 43.8523C54.3458 43.8449 54.3451 43.8375 54.3445 43.8301H54.3931L55.1231 45.368L57.2061 49.2224H58.6758V42.0197H57.3034V44.891C57.3034 45.5829 57.387 46.3793 57.4599 47.062C57.4614 47.0756 57.4628 47.0892 57.4643 47.1027C57.47 47.1557 57.4755 47.208 57.481 47.2595C57.4861 47.307 57.491 47.3539 57.4958 47.4C57.4966 47.4072 57.4973 47.4145 57.4981 47.4217H57.4494L56.7194 45.8644L54.6267 42.0197H53.1667V49.2224H54.5294V46.3413C54.5294 45.7067 54.4623 45.0329 54.4001 44.409C54.3922 44.3298 54.3844 44.2514 54.3768 44.174ZM69.9903 49.3846V41.8575H71.7553V49.3846H69.9903ZM73.2031 49.3846V41.8575H75.0655L76.3304 45.3409C76.3304 45.3408 76.3304 45.3411 76.3304 45.3409C76.4316 45.6147 76.5206 45.9029 76.6089 46.1886C76.6221 46.2312 76.6352 46.2738 76.6484 46.3163C76.6931 46.1752 76.7357 46.035 76.7782 45.8948C76.8335 45.7127 76.8887 45.5307 76.9487 45.3469L76.95 45.343L78.1855 41.8575H80.0586V49.3846H78.4202V46.2148C78.4202 45.8704 78.4494 45.4469 78.4883 45.0248L78.287 45.5989L77.1385 48.7422H76.0843L74.9347 45.5961L74.7528 45.0683C74.7873 45.476 74.8123 45.8823 74.8123 46.2148V49.3846H73.2031ZM74.5273 44.4145C74.5126 44.2742 74.4978 44.1389 74.4836 44.0118C74.4778 43.9606 74.4722 43.9108 74.4666 43.8625C74.4662 43.8582 74.4657 43.8539 74.4652 43.8496H74.5041L75.0881 45.5432L76.1977 48.58H77.025L78.1346 45.5432L78.7284 43.8496H78.777L78.7707 43.9049C78.7667 43.9398 78.7626 43.9755 78.7585 44.0118C78.7456 44.1249 78.732 44.2445 78.7184 44.3683C78.6512 44.9793 78.5824 45.6917 78.5824 46.2148V49.2224H79.8964V42.0197H78.3001L77.1029 45.3972C77.0453 45.5739 76.9907 45.7536 76.9356 45.9351C76.8706 46.149 76.8048 46.3658 76.7324 46.5828C76.7122 46.6434 76.6915 46.704 76.6701 46.7646C76.6684 46.7695 76.6666 46.7744 76.6649 46.7793H76.626C76.6242 46.7741 76.6225 46.7689 76.6208 46.7637C76.6006 46.703 76.581 46.6423 76.5616 46.5817C76.524 46.4638 76.4877 46.346 76.4515 46.2287C76.3646 45.9473 76.2785 45.6686 76.1782 45.3972L74.9518 42.0197H73.3653V49.2224H74.6501V46.2148C74.6501 45.7048 74.5901 45.015 74.5273 44.4145ZM80.5164 49.3846L82.9271 41.8575H84.8575L87.2682 49.3846H85.4136L84.9045 47.5353H82.8314L82.3223 49.3846H80.5164ZM82.7079 47.373H85.0281L85.5372 49.2224H87.0459L84.7391 42.0197H83.0455L80.7387 49.2224H82.1987L82.7079 47.373ZM84.5055 45.475C84.3668 44.9895 84.2321 44.4671 84.0989 43.9504C84.0486 43.7552 83.9985 43.5608 83.9484 43.3694C83.9274 43.289 83.9063 43.2092 83.8853 43.13C83.8844 43.1265 83.8835 43.1231 83.8826 43.1196H83.8436L83.7987 43.2996C83.7928 43.3231 83.7869 43.3467 83.781 43.3704C83.6052 44.0739 83.4217 44.8056 83.2304 45.475L83.0134 46.2634H84.7226L84.5055 45.475ZM84.5096 46.1012L84.3495 45.5196C84.3494 45.5194 84.3496 45.5198 84.3495 45.5196C84.2103 45.0324 84.0745 44.5057 83.941 43.9877C83.916 43.8908 83.8911 43.7941 83.8662 43.698C83.7125 44.3113 83.5525 44.9383 83.3866 45.519C83.3865 45.5192 83.3866 45.5188 83.3866 45.519L83.2263 46.1012H84.5096ZM93.3306 48.5596L93.2831 48.6071C92.7627 49.1275 91.8633 49.5209 90.8324 49.5209C89.8177 49.5209 88.91 49.182 88.2557 48.52C87.601 47.8577 87.2148 46.8867 87.2148 45.6502C87.2148 44.4269 87.6116 43.445 88.2693 42.7681C88.9267 42.0914 89.8339 41.731 90.8324 41.731C91.9163 41.731 92.6759 42.203 93.1663 42.6934L93.2703 42.7974L92.3073 43.9702L92.1809 43.8506C91.8389 43.5271 91.468 43.2915 90.8811 43.2915C90.3226 43.2915 89.8606 43.5061 89.5355 43.8931C89.2082 44.2827 89.009 44.8606 89.009 45.6016C89.009 46.3682 89.1844 46.9537 89.5083 47.345C89.8281 47.7314 90.311 47.9506 90.9784 47.9506C91.2704 47.9506 91.5472 47.8773 91.7214 47.7669V46.5911H90.4366V45.089H93.3306V48.5596ZM91.8836 47.85C91.6792 48.0154 91.3288 48.1128 90.9784 48.1128C89.567 48.1128 88.8468 47.1784 88.8468 45.6016C88.8468 44.0637 89.6741 43.1293 90.8811 43.1293C91.453 43.1293 91.8398 43.3377 92.172 43.6238C92.2128 43.659 92.2529 43.6954 92.2924 43.7328L93.0516 42.8081C92.5844 42.3409 91.8641 41.8932 90.8324 41.8932C88.9149 41.8932 87.377 43.2753 87.377 45.6502C87.377 48.0544 88.876 49.3586 90.8324 49.3586C91.8252 49.3586 92.6817 48.979 93.1684 48.4924V45.2512H90.5988V46.4289H91.8836V47.85ZM94.5518 49.3846V41.8575H99.2952V43.3791H96.3168V44.7191H98.8377V46.2602H96.3168V47.8532H99.4022V49.3846H94.5518ZM99.24 48.0154V49.2224H94.714V42.0197H99.1329V43.2169H96.1545V44.8813H98.6755V46.098H96.1545V48.0154H99.24ZM65.7626 48.4614C65.1646 49.1483 64.3155 49.5209 63.3188 49.5209C62.3175 49.5209 61.4659 49.1484 60.8667 48.4615C60.2693 47.7768 59.9349 46.7939 59.9349 45.5918C59.9349 44.3897 60.2693 43.4229 60.8681 42.7546C61.4684 42.0845 62.32 41.731 63.3188 41.731C64.3133 41.731 65.1624 42.0874 65.7613 42.7585C66.3585 43.4278 66.6931 44.3944 66.6931 45.5918C66.6931 46.7939 66.3587 47.7767 65.7626 48.4614ZM62.1711 47.3367C62.4456 47.7335 62.835 47.9506 63.3188 47.9506C63.7975 47.9506 64.1872 47.7338 64.4631 47.3365C64.7427 46.9339 64.9086 46.3394 64.9086 45.5918C64.9086 44.8443 64.7427 44.2656 64.4646 43.8785C64.1905 43.497 63.8013 43.2915 63.3188 43.2915C62.8312 43.2915 62.4422 43.4973 62.1696 43.8783C61.8928 44.2652 61.7291 44.8438 61.7291 45.5918C61.7291 46.3398 61.8928 46.9343 62.1711 47.3367ZM71.5931 42.0197H70.1525V49.2224H71.5931V42.0197ZM63.3188 49.3586C65.2266 49.3586 66.5308 47.9376 66.5308 45.5918C66.5308 43.2558 65.2266 41.8932 63.3188 41.8932C61.4014 41.8932 60.0971 43.2461 60.0971 45.5918C60.0971 47.9376 61.4014 49.3586 63.3188 49.3586ZM63.3188 48.1128C62.2384 48.1128 61.5668 47.1297 61.5668 45.5918C61.5668 44.054 62.2384 43.1293 63.3188 43.1293C64.3895 43.1293 65.0708 44.054 65.0708 45.5918C65.0708 47.1297 64.3895 48.1128 63.3188 48.1128Z" fill="#E1E1E5"/>
<mask id="mask0_1726_26485" style="mask-type:alpha" maskUnits="userSpaceOnUse" x="86" y="0" width="139" height="101">
<rect x="86" width="139" height="101" rx="8" fill="#D9D9D9"/>
</mask>
<g mask="url(#mask0_1726_26485)">
<path d="M200.751 31.06C215.109 22.0694 232.58 36.6993 226.204 52.3605C242.996 54.6806 246.949 77.0874 231.977 84.9932C243.341 97.5285 231.934 117.239 215.368 113.684C215.993 130.569 194.547 138.357 184.142 125.016C173.737 138.357 152.291 130.569 152.916 113.684C136.349 117.228 124.932 97.5285 136.306 84.9932C121.323 77.0874 125.287 54.6806 142.08 52.3605C135.692 36.6993 153.174 22.0801 167.532 31.06C172.735 14.98 195.559 14.98 200.762 31.06H200.751Z" fill="#E8E8EB"/>
<ellipse cx="162.724" cy="66.0261" rx="6.06835" ry="9.43966" fill="#F8F8FA"/>
<ellipse cx="160.701" cy="66.0253" rx="4.04557" ry="6.74261" fill="#C4C4CD"/>
<ellipse cx="181.6" cy="66.0256" rx="6.06835" ry="9.43966" fill="#F8F8FA"/>
<ellipse cx="179.577" cy="66.0248" rx="4.04557" ry="6.74261" fill="#C4C4CD"/>
<path fill-rule="evenodd" clip-rule="evenodd" d="M161.345 79.507C160.623 80.497 159.886 81.4945 159.06 82.4026L159.052 82.3952C156.923 84.74 154.69 86.5637 153.112 87.5091C152.561 87.8366 152.614 88.6406 153.187 88.9234C156.373 90.4941 160.02 91.4394 165.61 90.8588C168.846 90.527 170.385 88.8084 171.059 86.9647C171.733 88.8084 173.272 90.527 176.508 90.8588C182.098 91.4394 185.745 90.4941 188.931 88.9234C189.504 88.6406 189.557 87.8366 189.006 87.5091C187.428 86.5637 185.195 84.74 183.066 82.3952L183.058 82.4026C182.232 81.4945 181.495 80.497 180.773 79.507C180.192 78.7105 178.837 77.3929 176.284 77.5493C173.208 77.7321 171.712 79.8155 171.059 81.5162C170.406 79.8155 168.91 77.7321 165.834 77.5493C163.281 77.3929 161.926 78.7105 161.345 79.507Z" fill="#C4C4CD"/>
</g>
</svg>
