<svg width="96" height="64" viewBox="0 0 96 64" fill="none" xmlns="http://www.w3.org/2000/svg">
<path d="M10.0539 48.4944L25.1452 19.0788C29.2351 11.1068 40.6302 11.107 44.7197 19.0792L59.8096 48.4956C62.8819 54.4848 58.5328 61.6036 51.8016 61.6034L18.0614 61.6026C11.3302 61.6025 6.98133 54.4835 10.0539 48.4944Z" fill="#E4E6F7"/>
<path d="M36.3334 7.76937C36.0154 7.29552 35.4605 6.98394 34.8313 6.98393C34.202 6.98391 33.6472 7.29547 33.3292 7.7693C28.6672 8.41828 25.0269 12.0401 24.5937 16.5513L18.5176 16.5512C17.5365 16.5512 16.7449 17.3106 16.7449 18.2518C16.7448 19.193 17.5365 19.9524 18.5176 19.9524L45.1224 19.9531L45.1225 17.4411C45.1226 12.5209 41.3065 8.45753 36.3401 7.76288L36.3334 7.76937Z" fill="#EFF1FE"/>
<path d="M40.4482 16.2935C39.9241 14.1627 37.5253 12.5516 34.6426 12.5516C31.7599 12.5515 29.3677 14.1625 28.8368 16.2932L40.4482 16.2935Z" fill="#E4E6F6"/>
<ellipse cx="25.3371" cy="28.5587" rx="2.3911" ry="3.59583" fill="white"/>
<ellipse cx="24.54" cy="28.5588" rx="1.59406" ry="2.56845" fill="#BDC0D3"/>
<ellipse cx="32.776" cy="28.5589" rx="2.3911" ry="3.59583" fill="white"/>
<ellipse cx="31.979" cy="28.5589" rx="1.59406" ry="2.56845" fill="#BDC0D3"/>
<path d="M26.3999 35.7505C27.374 35.7505 29.6943 35.4424 31.1821 34.2096" stroke="#BDC0D3" stroke-width="2" stroke-linecap="round"/>
<path d="M78.2452 16.5049C84.06 12.9996 91.1352 18.7039 88.5527 24.8101C95.3532 25.7149 96.9539 34.4513 90.8905 37.5336C95.4924 42.4212 90.8727 50.1062 84.1638 48.7198C84.4167 55.3035 75.7316 58.3397 71.5179 53.138C67.304 58.3395 58.619 55.3029 58.8722 48.7192C52.1632 50.1011 47.5396 42.4201 52.1461 37.5327C46.0784 34.4501 47.6839 25.7138 54.4845 24.8093C51.8979 18.703 58.9777 13.0032 64.7924 16.5046C66.8994 10.2351 76.1428 10.2353 78.2495 16.5049L78.2452 16.5049Z" fill="#EFF1FE"/>
<ellipse cx="63.2848" cy="30.2648" rx="2.33126" ry="3.48331" fill="white"/>
<ellipse cx="62.5075" cy="30.2647" rx="1.55417" ry="2.48808" fill="#BDC0D3"/>
<ellipse cx="70.5363" cy="30.2649" rx="2.33126" ry="3.48331" fill="white"/>
<ellipse cx="69.7589" cy="30.2648" rx="1.55417" ry="2.48808" fill="#BDC0D3"/>
<path fill-rule="evenodd" clip-rule="evenodd" d="M62.7553 35.2396C62.4779 35.6049 62.1947 35.973 61.8773 36.3081L61.8744 36.3053C61.0566 37.1706 60.1986 37.8435 59.5924 38.1924C59.3808 38.3132 59.4008 38.6099 59.621 38.7143C60.8449 39.2939 62.2461 39.6428 64.3937 39.4285C65.6367 39.3061 66.228 38.6719 66.487 37.9916C66.7459 38.6719 67.3371 39.3062 68.5801 39.4286C70.7277 39.643 72.129 39.2941 73.3529 38.7146C73.5731 38.6102 73.5931 38.3136 73.3815 38.1927C72.7753 37.8438 71.9174 37.1708 71.0996 36.3056L71.0967 36.3083C70.7793 35.9732 70.4962 35.6051 70.2188 35.2398C69.9958 34.9459 69.4753 34.4597 68.4944 34.5173C67.3126 34.5847 66.7378 35.3536 66.487 35.9812C66.2363 35.3536 65.6615 34.5847 64.4796 34.5172C63.4988 34.4595 62.9783 34.9457 62.7553 35.2396Z" fill="#BDC0D3"/>
</svg>
