<svg width="25" height="24" viewBox="0 0 25 24" fill="none" xmlns="http://www.w3.org/2000/svg">
<path fill-rule="evenodd" clip-rule="evenodd" d="M1.33337 8.75C1.33337 8.33579 1.66916 8 2.08337 8H22.0834C22.4976 8 22.8334 8.33579 22.8334 8.75C22.8334 9.16421 22.4976 9.5 22.0834 9.5H2.08337C1.66916 9.5 1.33337 9.16421 1.33337 8.75Z" fill="cureent"/>
<path fill-rule="evenodd" clip-rule="evenodd" d="M5.33337 16.75C5.33337 16.3358 5.66916 16 6.08337 16H8.08337C8.49759 16 8.83337 16.3358 8.83337 16.75C8.83337 17.1642 8.49759 17.5 8.08337 17.5H6.08337C5.66916 17.5 5.33337 17.1642 5.33337 16.75Z" fill="cureent"/>
<path fill-rule="evenodd" clip-rule="evenodd" d="M9.83337 16.75C9.83337 16.3358 10.1692 16 10.5834 16H14.5834C14.9976 16 15.3334 16.3358 15.3334 16.75C15.3334 17.1642 14.9976 17.5 14.5834 17.5H10.5834C10.1692 17.5 9.83337 17.1642 9.83337 16.75Z" fill="cureent"/>
<path fill-rule="evenodd" clip-rule="evenodd" d="M3.49944 5.16207C3.07438 5.58235 2.83337 6.38117 2.83337 8.14V16.36C2.83337 18.1192 3.07452 18.9173 3.49894 19.3362C3.9261 19.7577 4.74016 19.995 6.52126 19.99L6.52337 19.99L17.6434 19.99C19.4244 19.99 20.2393 19.7511 20.6673 19.3279C21.0924 18.9076 21.3334 18.1088 21.3334 16.35V8.14C21.3334 6.38111 21.0923 5.58275 20.6666 5.16257C20.2373 4.73896 19.4197 4.5 17.6334 4.5H6.52337C4.74238 4.5 3.92746 4.73887 3.49944 5.16207ZM2.4448 4.09543C3.34929 3.20113 4.75437 3 6.52337 3H17.6334C19.407 3 20.8144 3.20104 21.7202 4.09493C22.6294 4.99225 22.8334 6.38889 22.8334 8.14V16.35C22.8334 18.1012 22.6294 19.4974 21.7219 20.3946C20.8175 21.2889 19.4124 21.49 17.6434 21.49H6.52412C4.75586 21.4949 3.35042 21.297 2.44531 20.4038C1.53723 19.5077 1.33337 18.1108 1.33337 16.36V8.14C1.33337 6.38883 1.53737 4.99265 2.4448 4.09543Z" fill="cureent"/>
</svg>
