<svg width="25" height="24" viewBox="0 0 25 24" fill="none" xmlns="http://www.w3.org/2000/svg">
<path d="M18.6404 21.6198C17.7604 21.8798 16.7204 21.9998 15.5004 21.9998H9.50035C8.28035 21.9998 7.24035 21.8798 6.36035 21.6198C6.58035 19.0198 9.25035 16.9697 12.5004 16.9697C15.7504 16.9697 18.4204 19.0198 18.6404 21.6198Z" stroke="current" stroke-width="1.5" stroke-linecap="round" stroke-linejoin="round"/>
<path d="M15.5 2H9.5C4.5 2 2.5 4 2.5 9V15C2.5 18.78 3.64 20.85 6.36 21.62C6.58 19.02 9.25 16.97 12.5 16.97C15.75 16.97 18.42 19.02 18.64 21.62C21.36 20.85 22.5 18.78 22.5 15V9C22.5 4 20.5 2 15.5 2ZM12.5 14.17C10.52 14.17 8.92 12.56 8.92 10.58C8.92 8.60002 10.52 7 12.5 7C14.48 7 16.08 8.60002 16.08 10.58C16.08 12.56 14.48 14.17 12.5 14.17Z" stroke="current" stroke-width="1.5" stroke-linecap="round" stroke-linejoin="round"/>
<path d="M16.08 10.58C16.08 12.56 14.48 14.17 12.5 14.17C10.52 14.17 8.91998 12.56 8.91998 10.58C8.91998 8.60002 10.52 7 12.5 7C14.48 7 16.08 8.60002 16.08 10.58Z" stroke="current" stroke-width="1.5" stroke-linecap="round" stroke-linejoin="round"/>
</svg>
