<svg width="38" height="38" viewBox="0 0 38 38" fill="none" xmlns="http://www.w3.org/2000/svg">
<rect width="38" height="38" rx="8" fill="white"/>
<path d="M15.1158 10.1816H13.0287C12.6658 10.1816 12.3716 10.4759 12.3716 10.8388V21.5877C12.3716 21.9507 12.6658 22.2449 13.0287 22.2449H15.1158C15.4787 22.2449 15.7729 21.9507 15.7729 21.5877V10.8388C15.7729 10.4759 15.4787 10.1816 15.1158 10.1816Z" fill="#FFDC61"/>
<path d="M18.5118 10.1816H16.4247C16.0618 10.1816 15.7676 10.4759 15.7676 10.8388V21.5877C15.7676 21.9507 16.0618 22.2449 16.4247 22.2449H18.5118C18.8747 22.2449 19.1689 21.9507 19.1689 21.5877V10.8388C19.1689 10.4759 18.8747 10.1816 18.5118 10.1816Z" fill="#FFDC61"/>
<path d="M21.9073 5H19.8202C19.4573 5 19.1631 5.29422 19.1631 5.65716V16.4061C19.1631 16.769 19.4573 17.0633 19.8202 17.0633H21.9073C22.2702 17.0633 22.5644 16.769 22.5644 16.4061V5.65716C22.5644 5.29422 22.2702 5 21.9073 5Z" fill="#FFDC61"/>
<path d="M22.7 11.1868H19.1646V14.7222H22.7V11.1868Z" fill="#DDE4F9"/>
<path d="M24.7552 10.8828H24.5725C23.3837 10.8828 22.4205 11.846 22.4205 13.0348V14.5814H12.3716V13.0348C12.3716 11.846 11.4085 10.8828 10.2196 10.8828H10.0369C9.46452 10.8828 9 11.3473 9 11.9197V29.4385C9 31.1722 10.4057 32.5779 12.1394 32.5779H22.6539C24.3876 32.5779 25.7932 31.1722 25.7932 29.4385V11.9197C25.7932 11.3473 25.3287 10.8828 24.7563 10.8828H24.7552Z" fill="#4382FF"/>
<path d="M33.4728 12.5163L31.7986 11.2701C31.5075 11.0534 31.0958 11.1137 30.8791 11.4048L24.4609 20.0273C24.2442 20.3184 24.3045 20.7301 24.5956 20.9468L26.2698 22.193C26.5609 22.4097 26.9726 22.3494 27.1893 22.0582L33.6075 13.4358C33.8243 13.1447 33.7639 12.733 33.4728 12.5163Z" fill="#FFDC61"/>
<path d="M29.6542 17.0014L28.5644 16.1901C28.1213 15.8603 27.4949 15.9522 27.1651 16.3952L18.8334 27.5883C18.5036 28.0313 18.5954 28.6578 19.0385 28.9875L20.1283 29.7988C20.5713 30.1286 21.1978 30.0367 21.5276 29.5937L29.8593 18.4006C30.1891 17.9576 30.0973 17.3311 29.6542 17.0014Z" fill="#DDE4F9"/>
</svg>
