<svg width="38" height="38" viewBox="0 0 38 38" fill="none" xmlns="http://www.w3.org/2000/svg">
<rect width="38" height="38" rx="8" fill="white"/>
<path d="M19.0141 12.4839C13.7045 12.4839 10.1593 16.6081 8.33209 24.0754C7.07024 29.2348 9.14874 33.4164 19.0141 33.4164H18.9868C28.8522 33.4164 30.928 29.2321 29.6689 24.0754C27.8444 16.6109 24.2992 12.4839 18.9868 12.4839H19.0141Z" fill="#5CBF7B"/>
<path d="M19 10.1897C20.433 10.1897 21.5947 9.02798 21.5947 7.59496C21.5947 6.16194 20.433 5.00024 19 5.00024C17.567 5.00024 16.4053 6.16194 16.4053 7.59496C16.4053 9.02798 17.567 10.1897 19 10.1897Z" fill="#5CBF7B"/>
<path d="M14.9902 10.9573C16.4232 10.9573 17.5849 9.79556 17.5849 8.36254C17.5849 6.92952 16.4232 5.76782 14.9902 5.76782C13.5572 5.76782 12.3955 6.92952 12.3955 8.36254C12.3955 9.79556 13.5572 10.9573 14.9902 10.9573Z" fill="#5CBF7B"/>
<path d="M23.0093 10.9573C24.4423 10.9573 25.604 9.79556 25.604 8.36254C25.604 6.92952 24.4423 5.76782 23.0093 5.76782C21.5762 5.76782 20.4146 6.92952 20.4146 8.36254C20.4146 9.79556 21.5762 10.9573 23.0093 10.9573Z" fill="#5CBF7B"/>
<path d="M14.0126 12.0554H23.9873L25.4267 9.30774L22.0508 8.11963L12.5732 9.30774L14.0126 12.0554Z" fill="#5CBF7B"/>
<path d="M23.7969 12.0549H14.2046C13.7445 12.0549 13.3716 12.4279 13.3716 12.888V13.0054C13.3716 13.4655 13.7445 13.8385 14.2046 13.8385H23.7969C24.257 13.8385 24.6299 13.4655 24.6299 13.0054V12.888C24.6299 12.4279 24.257 12.0549 23.7969 12.0549Z" fill="#EC715B"/>
<path d="M15.6829 25.2953C15.6829 25.7902 15.3431 26.0465 14.9318 26.0465C14.5204 26.0465 14.1865 25.7842 14.1865 25.2953V23.0954C14.0613 23.155 13.9361 23.1908 13.805 23.1908C13.3936 23.1908 13.1074 22.845 13.1074 22.4456C13.1074 22.2309 13.1849 22.0223 13.3638 21.8434L14.3952 20.8239C14.6038 20.6153 14.8125 20.5139 15.0391 20.5139C15.4325 20.5139 15.6829 20.8239 15.6829 21.3486V25.2953Z" fill="white"/>
<path d="M20.8519 23.9956C20.8519 25.5099 20.1365 26.0166 19.0454 26.0166H18.1512C17.0601 26.0166 16.3447 25.5039 16.3447 23.9956V22.5826C16.3447 21.0742 17.0601 20.5615 18.1512 20.5615H19.0454C20.1365 20.5615 20.8519 21.0742 20.8519 22.5826V23.9956ZM19.0097 24.5023C19.2839 24.5023 19.3793 24.395 19.3793 23.9598V22.6243C19.3793 22.1891 19.278 22.0818 19.0097 22.0818H18.1989C17.9246 22.0818 17.8292 22.1891 17.8292 22.6243V23.9598C17.8292 24.395 17.9306 24.5023 18.1989 24.5023H19.0097Z" fill="white"/>
<path d="M22.2345 26.0165C21.7397 26.0165 21.4893 25.7602 21.4893 25.2594V21.2828C21.4952 20.8059 21.835 20.5376 22.2345 20.5376C22.6339 20.5376 22.9857 20.8118 22.9857 21.2828V24.5082H23.7846C24.2496 24.5082 24.5 24.848 24.5 25.2594C24.5 25.6708 24.2496 26.0165 23.7846 26.0165H22.2345Z" fill="white"/>
</svg>
