<svg width="38" height="38" viewBox="0 0 38 38" fill="none" xmlns="http://www.w3.org/2000/svg">
<rect width="38" height="38" rx="8" fill="white"/>
<path d="M12.2423 27.769H18.7856C19.596 27.769 20.2529 28.426 20.2529 29.2364C20.2529 30.0468 19.596 30.7038 18.7856 30.7038H12.2423C11.4319 30.7038 10.7749 30.0468 10.7749 29.2364C10.7749 28.426 11.4319 27.769 12.2423 27.769Z" fill="#FFDC61"/>
<path d="M12.2423 25.1287H18.7856C19.596 25.1287 20.2529 25.7856 20.2529 26.596C20.2529 27.4064 19.596 28.0634 18.7856 28.0634H12.2423C11.4319 28.0634 10.7749 27.4064 10.7749 26.596C10.7749 25.7856 11.4319 25.1287 12.2423 25.1287Z" fill="#FFDC61"/>
<path d="M19.2549 27.8538H11.7683" stroke="#EC715B" stroke-linecap="round" stroke-linejoin="round"/>
<path d="M12.2423 22.2239H18.7856C19.596 22.2239 20.2529 22.8808 20.2529 23.6912C20.2529 24.5016 19.596 25.1586 18.7856 25.1586H12.2423C11.4319 25.1586 10.7749 24.5016 10.7749 23.6912C10.7749 22.8808 11.4319 22.2239 12.2423 22.2239Z" fill="#FFDC61"/>
<path d="M19.2549 24.949H11.7683" stroke="#EC715B" stroke-linecap="round" stroke-linejoin="round"/>
<path d="M21.9894 27.7686H28.5326C29.343 27.7686 30 28.4255 30 29.2359C30 30.0463 29.343 30.7033 28.5326 30.7033H21.9894C21.179 30.7033 20.522 30.0463 20.522 29.2359C20.522 28.4255 21.179 27.7686 21.9894 27.7686Z" fill="#FFDC61"/>
<path d="M21.9894 25.1282H28.5326C29.343 25.1282 30 25.7851 30 26.5955C30 27.4059 29.343 28.0629 28.5326 28.0629H21.9894C21.179 28.0629 20.522 27.4059 20.522 26.5955C20.522 25.7851 21.179 25.1282 21.9894 25.1282Z" fill="#FFDC61"/>
<path d="M29.002 27.8535H21.5154" stroke="#EC715B" stroke-linecap="round" stroke-linejoin="round"/>
<path d="M21.9894 22.2236H28.5326C29.343 22.2236 30 22.8806 30 23.691C30 24.5014 29.343 25.1584 28.5326 25.1584H21.9894C21.179 25.1584 20.522 24.5014 20.522 23.691C20.522 22.8806 21.179 22.2236 21.9894 22.2236Z" fill="#FFDC61"/>
<path d="M29.002 24.9487H21.5154" stroke="#EC715B" stroke-linecap="round" stroke-linejoin="round"/>
<path d="M21.9894 19.2939H28.5326C29.343 19.2939 30 19.9509 30 20.7613C30 21.5717 29.343 22.2287 28.5326 22.2287H21.9894C21.179 22.2287 20.522 21.5717 20.522 20.7613C20.522 19.9509 21.179 19.2939 21.9894 19.2939Z" fill="#FFDC61"/>
<path d="M29.002 22.019H21.5154" stroke="#EC715B" stroke-linecap="round" stroke-linejoin="round"/>
<path d="M21.9894 16.5088H28.5326C29.343 16.5088 30 17.1658 30 17.9762C30 18.7866 29.343 19.4435 28.5326 19.4435H21.9894C21.179 19.4435 20.522 18.7866 20.522 17.9762C20.522 17.1658 21.179 16.5088 21.9894 16.5088Z" fill="#FFDC61"/>
<path d="M29.002 19.2339H21.5154" stroke="#EC715B" stroke-linecap="round" stroke-linejoin="round"/>
<path d="M21.9894 13.8037H28.5326C29.343 13.8037 30 14.4607 30 15.2711C30 16.0815 29.343 16.7384 28.5326 16.7384H21.9894C21.179 16.7384 20.522 16.0815 20.522 15.2711C20.522 14.4607 21.179 13.8037 21.9894 13.8037Z" fill="#FFDC61"/>
<path d="M29.002 16.5288H21.5154" stroke="#EC715B" stroke-linecap="round" stroke-linejoin="round"/>
<path d="M12.0501 11.3883C12.3983 12.192 13.8593 15.0438 17.9588 17.6387C18.1581 17.7644 18.1197 18.0652 17.8954 18.1354L13.5829 19.5339C13.5829 19.5339 13.4345 19.5491 13.3692 19.5151C12.619 19.1094 8.50482 16.3 7.69983 12.5636C7.66976 12.4204 7.76144 12.2814 7.90053 12.2444L11.7246 11.2316C11.8577 11.1967 11.9964 11.2634 12.0501 11.3883Z" fill="#4382FF"/>
<path d="M21.448 4.2267C21.0998 5.03042 19.6387 7.88223 15.5393 10.4771C15.3399 10.6028 15.3783 10.9036 15.6027 10.9738L19.9151 12.3723C19.9151 12.3723 20.0635 12.3874 20.1289 12.3535C20.879 11.9478 24.9932 9.13833 25.7982 5.40195C25.8283 5.25877 25.7366 5.11975 25.5975 5.08275L21.7735 4.06998C21.6403 4.03507 21.5017 4.10182 21.448 4.2267Z" fill="#4382FF"/>
</svg>
