<svg width="20" height="20" viewBox="0 0 20 20" fill="none" xmlns="http://www.w3.org/2000/svg">
<path d="M10 18C14.4183 18 18 14.4183 18 10C18 5.58172 14.4183 2 10 2C5.58172 2 2 5.58172 2 10C2 14.4183 5.58172 18 10 18Z" fill="#FFDC61"/>
<path d="M13.6103 8.82257L13.5384 8.82561L13.5804 8.69743C13.6065 8.59066 13.6113 8.49466 13.6161 8.39866C13.6135 7.89214 13.2574 7.59807 12.8842 7.60001C12.5829 7.59891 12.3306 7.7735 12.2447 8.17118L12.0988 8.83309L11.0591 8.83849L10.9092 8.21277C10.8165 7.81869 10.5035 7.6097 10.2183 7.61385C9.86374 7.61303 9.61953 7.81691 9.53362 8.21458L9.38223 8.8392L8.2732 8.83962L8.10178 8.17136C8.00108 7.77466 7.73366 7.61609 7.4324 7.61499C7.04053 7.61969 6.69286 7.92275 6.69549 8.42926C6.69329 8.51725 6.72298 8.58908 6.75545 8.67955L6.80959 8.83923L6.70296 8.83978C6.31109 8.84448 5.99547 9.15804 6.00017 9.54991C6.00487 9.94178 6.31842 10.2574 6.71029 10.2527L7.24347 10.2499L8.09244 13.0474C8.193 13.4175 8.48998 13.6212 8.81789 13.6222C9.08448 13.6208 9.40881 13.4432 9.52939 13.048L10.2005 10.8637L10.9156 13.0408C11.0429 13.4107 11.3132 13.6145 11.6411 13.6155C11.9077 13.6141 12.232 13.4365 12.3526 13.0413L13.1378 10.238L13.6177 10.2355C14.0096 10.2308 14.3252 9.91723 14.3205 9.52536C14.3158 9.13349 14.0022 8.81787 13.6103 8.82257ZM8.6271 10.2507L9.04301 10.2539L8.83942 11.0921L8.6271 10.2507ZM11.5933 11.0804L11.389 10.2417L11.7782 10.245L11.5907 11.0885L11.5933 11.0804Z" fill="#EBA43A"/>
</svg>
