<svg width="24" height="24" viewBox="0 0 24 24" fill="none" xmlns="http://www.w3.org/2000/svg">
<path d="M12 15.0002C13.6569 15.0002 15 13.6571 15 12.0002C15 10.3434 13.6569 9.00024 12 9.00024C10.3431 9.00024 9 10.3434 9 12.0002C9 13.6571 10.3431 15.0002 12 15.0002Z" stroke="white" stroke-width="1.5" stroke-miterlimit="10" stroke-linecap="round" stroke-linejoin="round"/>
<path d="M2 12.8798V11.1198C2 10.0798 2.85 9.21981 3.9 9.21981C5.71 9.21981 6.45 7.93981 5.54 6.36981C5.02 5.46981 5.33 4.29981 6.24 3.77981L7.97 2.78981C8.76 2.31981 9.78 2.59981 10.25 3.38981L10.36 3.57981C11.26 5.14981 12.74 5.14981 13.65 3.57981L13.76 3.38981C14.23 2.59981 15.25 2.31981 16.04 2.78981L17.77 3.77981C18.68 4.29981 18.99 5.46981 18.47 6.36981C17.56 7.93981 18.3 9.21981 20.11 9.21981C21.15 9.21981 22.01 10.0698 22.01 11.1198V12.8798C22.01 13.9198 21.16 14.7798 20.11 14.7798C18.3 14.7798 17.56 16.0598 18.47 17.6298C18.99 18.5398 18.68 19.6998 17.77 20.2198L16.04 21.2098C15.25 21.6798 14.23 21.3998 13.76 20.6098L13.65 20.4198C12.75 18.8498 11.27 18.8498 10.36 20.4198L10.25 20.6098C9.78 21.3998 8.76 21.6798 7.97 21.2098L6.24 20.2198C5.33 19.6998 5.02 18.5298 5.54 17.6298C6.45 16.0598 5.71 14.7798 3.9 14.7798C2.85 14.7798 2 13.9198 2 12.8798Z" stroke="white" stroke-width="1.5" stroke-miterlimit="10" stroke-linecap="round" stroke-linejoin="round"/>
</svg>
