<svg width="24" height="25" viewBox="0 0 24 25" fill="none" xmlns="http://www.w3.org/2000/svg">
<circle cx="12" cy="12.5" r="12" fill="#4382FF" fill-opacity="0.2"/>
<path d="M11.3008 13.8518L11.311 14.0912H11.5506H12.6376H12.8778L12.8874 13.8512L13.1133 8.20411L13.1134 8.20411L13.1135 8.20037L13.1558 6.50625L13.1622 6.25H12.9059H11.2682H11.0119L11.0183 6.50625L11.0607 8.20037L11.0606 8.20037L11.0608 8.20473L11.3008 13.8518ZM12.0871 19.5924C12.8567 19.5924 13.4241 18.9898 13.4241 18.1988C13.4241 17.3916 12.8546 16.8053 12.0871 16.8053C11.3357 16.8053 10.75 17.3894 10.75 18.1988C10.75 18.992 11.3337 19.5924 12.0871 19.5924Z" fill="#4382FF" stroke="#4382FF" stroke-width="0.5"/>
</svg>
