<svg width="50" height="50" viewBox="0 0 50 50" fill="none" xmlns="http://www.w3.org/2000/svg">
<rect width="50" height="50" rx="8" fill="#F8F8FA"/>
<path d="M21.2834 15.1711H18.7978C18.3655 15.1711 18.0151 15.5215 18.0151 15.9538V28.7553C18.0151 29.1875 18.3655 29.5379 18.7978 29.5379H21.2834C21.7156 29.5379 22.066 29.1875 22.066 28.7553V15.9538C22.066 15.5215 21.7156 15.1711 21.2834 15.1711Z" fill="#FFDC61"/>
<path d="M25.3283 15.1711H22.8427C22.4105 15.1711 22.0601 15.5215 22.0601 15.9538V28.7553C22.0601 29.1875 22.4105 29.5379 22.8427 29.5379H25.3283C25.7605 29.5379 26.1109 29.1875 26.1109 28.7553V15.9538C26.1109 15.5215 25.7605 15.1711 25.3283 15.1711Z" fill="#FFDC61"/>
<path d="M29.3717 9H26.8862C26.4539 9 26.1035 9.3504 26.1035 9.78264V22.5842C26.1035 23.0164 26.4539 23.3668 26.8862 23.3668H29.3717C29.804 23.3668 30.1544 23.0164 30.1544 22.5842V9.78264C30.1544 9.3504 29.804 9 29.3717 9Z" fill="#FFDC61"/>
<path d="M30.316 16.3682H26.1055V20.5787H30.316V16.3682Z" fill="#E6E7F8"/>
<path d="M32.7638 16.0061H32.5461C31.1303 16.0061 29.9832 17.1532 29.9832 18.569V20.4109H18.0155V18.569C18.0155 17.1532 16.8684 16.0061 15.4525 16.0061H15.2349C14.5532 16.0061 14 16.5593 14 17.241V38.1051C14 40.1698 15.6741 41.8439 17.7389 41.8439H30.2611C32.3259 41.8439 34 40.1698 34 38.1051V17.241C34 16.5593 33.4468 16.0061 32.7651 16.0061H32.7638Z" fill="#5696FC"/>
<path d="M43.1461 17.9515L41.1522 16.4673C40.8055 16.2092 40.3152 16.2811 40.0571 16.6278L32.4133 26.8967C32.1552 27.2435 32.227 27.7338 32.5738 27.9919L34.5676 29.476C34.9144 29.7341 35.4047 29.6623 35.6628 29.3155L43.3066 19.0466C43.5647 18.6999 43.4928 18.2096 43.1461 17.9515Z" fill="#FFDC61"/>
<path d="M38.7512 23.407L37.1469 22.2128C36.7039 21.8831 36.0774 21.9749 35.7476 22.4179L25.5969 36.0547C25.2671 36.4977 25.3589 37.1242 25.802 37.454L27.4063 38.6482C27.8493 38.9779 28.4758 38.8861 28.8056 38.4431L38.9563 24.8063C39.2861 24.3633 39.1942 23.7368 38.7512 23.407Z" fill="#E6E7F8"/>
</svg>
