<svg width="50" height="50" viewBox="0 0 50 50" fill="none" xmlns="http://www.w3.org/2000/svg">
<rect width="50" height="50" rx="8" fill="#F8F8FA"/>
<path d="M25.018 16.5249C18.2603 16.5249 13.7482 21.7739 11.4227 31.2778C9.81667 37.8443 12.462 43.1663 25.018 43.1663H24.9832C37.5392 43.1663 40.1811 37.8408 38.5786 31.2778C36.2565 21.7774 31.7444 16.5249 24.9832 16.5249H25.018Z" fill="#5CBF7B"/>
<path d="M24.9996 13.605C26.8235 13.605 28.302 12.1265 28.302 10.3026C28.302 8.47876 26.8235 7.00024 24.9996 7.00024C23.1758 7.00024 21.6973 8.47876 21.6973 10.3026C21.6973 12.1265 23.1758 13.605 24.9996 13.605Z" fill="#5CBF7B"/>
<path d="M19.8966 14.5818C21.7205 14.5818 23.199 13.1033 23.199 11.2794C23.199 9.45557 21.7205 7.97705 19.8966 7.97705C18.0728 7.97705 16.5942 9.45557 16.5942 11.2794C16.5942 13.1033 18.0728 14.5818 19.8966 14.5818Z" fill="#5CBF7B"/>
<path d="M30.1027 14.5818C31.9265 14.5818 33.405 13.1033 33.405 11.2794C33.405 9.45557 31.9265 7.97705 30.1027 7.97705C28.2788 7.97705 26.8003 9.45557 26.8003 11.2794C26.8003 13.1033 28.2788 14.5818 30.1027 14.5818Z" fill="#5CBF7B"/>
<path d="M18.6527 15.9794H31.3477L33.1797 12.4824L28.8831 10.9702L16.8208 12.4824L18.6527 15.9794Z" fill="#5CBF7B"/>
<path d="M31.105 15.979H18.8967C18.3111 15.979 17.8364 16.4537 17.8364 17.0392V17.1887C17.8364 17.7743 18.3111 18.2489 18.8967 18.2489H31.105C31.6905 18.2489 32.1652 17.7743 32.1652 17.1887V17.0392C32.1652 16.4537 31.6905 15.979 31.105 15.979Z" fill="#EC715B"/>
<path d="M20.7779 32.8303C20.7779 33.4601 20.3454 33.7864 19.8219 33.7864C19.2983 33.7864 18.8734 33.4525 18.8734 32.8303V30.0304C18.7141 30.1063 18.5547 30.1518 18.3878 30.1518C17.8642 30.1518 17.5 29.7117 17.5 29.2033C17.5 28.9302 17.5986 28.6646 17.8263 28.437L19.139 27.1394C19.4045 26.8739 19.6701 26.7449 19.9585 26.7449C20.4592 26.7449 20.7779 27.1394 20.7779 27.8072V32.8303Z" fill="white"/>
<path d="M27.3565 31.176C27.3565 33.1033 26.446 33.7483 25.0574 33.7483H23.9192C22.5307 33.7483 21.6201 33.0957 21.6201 31.176V29.3777C21.6201 27.458 22.5307 26.8054 23.9192 26.8054H25.0574C26.446 26.8054 27.3565 27.458 27.3565 29.3777V31.176ZM25.0119 31.821C25.3609 31.821 25.4823 31.6844 25.4823 31.1305V29.4308C25.4823 28.8769 25.3533 28.7403 25.0119 28.7403H23.9799C23.6309 28.7403 23.5095 28.8769 23.5095 29.4308V31.1305C23.5095 31.6844 23.6385 31.821 23.9799 31.821H25.0119Z" fill="white"/>
<path d="M29.1164 33.7484C28.4867 33.7484 28.168 33.4221 28.168 32.7847V27.7236C28.1756 27.1166 28.6081 26.7751 29.1164 26.7751C29.6248 26.7751 30.0725 27.1242 30.0725 27.7236V31.8286H31.0893C31.6811 31.8286 31.9998 32.2611 31.9998 32.7847C31.9998 33.3083 31.6811 33.7484 31.0893 33.7484H29.1164Z" fill="white"/>
</svg>
