<svg width="36" height="36" viewBox="0 0 36 36" fill="none" xmlns="http://www.w3.org/2000/svg">
<rect width="36" height="36" rx="8" fill="#F8F8FA"/>
<path d="M18.0776 11.8475C13.2195 11.8475 9.97571 15.6211 8.30385 22.4535C7.1493 27.1741 9.05107 31.0002 18.0776 31.0002H18.0526C27.0791 31.0002 28.9784 27.1716 27.8263 22.4535C26.157 15.6236 22.9132 11.8475 18.0526 11.8475H18.0776Z" fill="#5CBF7B"/>
<path d="M18.0645 9.74836C19.3757 9.74836 20.4386 8.68544 20.4386 7.37427C20.4386 6.0631 19.3757 5.00018 18.0645 5.00018C16.7533 5.00018 15.6904 6.0631 15.6904 7.37427C15.6904 8.68544 16.7533 9.74836 18.0645 9.74836Z" fill="#5CBF7B"/>
<path d="M14.3956 10.4507C15.7067 10.4507 16.7697 9.38777 16.7697 8.0766C16.7697 6.76543 15.7067 5.70251 14.3956 5.70251C13.0844 5.70251 12.0215 6.76543 12.0215 8.0766C12.0215 9.38777 13.0844 10.4507 14.3956 10.4507Z" fill="#5CBF7B"/>
<path d="M21.7327 10.4507C23.0439 10.4507 24.1068 9.38777 24.1068 8.0766C24.1068 6.76543 23.0439 5.70251 21.7327 5.70251C20.4216 5.70251 19.3586 6.76543 19.3586 8.0766C19.3586 9.38777 20.4216 10.4507 21.7327 10.4507Z" fill="#5CBF7B"/>
<path d="M13.5011 11.4555H22.6276L23.9446 8.94142L20.8557 7.85434L12.1841 8.94142L13.5011 11.4555Z" fill="#5CBF7B"/>
<path d="M22.4536 11.455H13.677C13.256 11.455 12.9148 11.7963 12.9148 12.2173V12.3247C12.9148 12.7457 13.256 13.0869 13.677 13.0869H22.4536C22.8746 13.0869 23.2158 12.7457 23.2158 12.3247V12.2173C23.2158 11.7963 22.8746 11.455 22.4536 11.455Z" fill="#EC715B"/>
<path d="M15.0296 23.5696C15.0296 24.0224 14.7187 24.2569 14.3423 24.2569C13.9659 24.2569 13.6604 24.0169 13.6604 23.5696V21.5567C13.5459 21.6113 13.4313 21.644 13.3113 21.644C12.9349 21.644 12.6731 21.3276 12.6731 20.9622C12.6731 20.7658 12.744 20.5749 12.9077 20.4112L13.8514 19.4784C14.0423 19.2875 14.2332 19.1948 14.4405 19.1948C14.8005 19.1948 15.0296 19.4784 15.0296 19.9585V23.5696Z" fill="#F8F8FA"/>
<path d="M19.7589 22.3803C19.7589 23.7658 19.1043 24.2295 18.1061 24.2295H17.2878C16.2896 24.2295 15.635 23.7604 15.635 22.3803V21.0875C15.635 19.7074 16.2896 19.2383 17.2878 19.2383H18.1061C19.1043 19.2383 19.7589 19.7074 19.7589 21.0875V22.3803ZM18.0734 22.844C18.3243 22.844 18.4116 22.7458 18.4116 22.3476V21.1257C18.4116 20.7274 18.3188 20.6293 18.0734 20.6293H17.3315C17.0806 20.6293 16.9933 20.7274 16.9933 21.1257V22.3476C16.9933 22.7458 17.086 22.844 17.3315 22.844H18.0734Z" fill="#F8F8FA"/>
<path d="M21.0239 24.2294C20.5711 24.2294 20.342 23.9949 20.342 23.5367V19.8982C20.3475 19.4618 20.6584 19.2164 21.0239 19.2164C21.3894 19.2164 21.7112 19.4673 21.7112 19.8982V22.8493H22.4422C22.8677 22.8493 23.0968 23.1603 23.0968 23.5367C23.0968 23.9131 22.8677 24.2294 22.4422 24.2294H21.0239Z" fill="#F8F8FA"/>
</svg>
