<svg width="36" height="36" viewBox="0 0 36 36" fill="none" xmlns="http://www.w3.org/2000/svg">
<rect width="36" height="36" rx="8" fill="#F8F8FA"/>
<path d="M12.2423 27.769H18.7856C19.596 27.769 20.2529 28.426 20.2529 29.2364C20.2529 30.0468 19.596 30.7037 18.7856 30.7037H12.2423C11.4319 30.7037 10.7749 30.0468 10.7749 29.2364C10.7749 28.426 11.4319 27.769 12.2423 27.769Z" fill="#FFDC61"/>
<path d="M12.2423 25.1286H18.7856C19.596 25.1286 20.2529 25.7856 20.2529 26.596C20.2529 27.4064 19.596 28.0634 18.7856 28.0634H12.2423C11.4319 28.0634 10.7749 27.4064 10.7749 26.596C10.7749 25.7856 11.4319 25.1286 12.2423 25.1286Z" fill="#FFDC61"/>
<path fill-rule="evenodd" clip-rule="evenodd" d="M19.7546 27.8539C19.7546 27.5777 19.5308 27.3539 19.2546 27.3539H11.7681C11.4919 27.3539 11.2681 27.5777 11.2681 27.8539C11.2681 28.13 11.4919 28.3539 11.7681 28.3539H19.2546C19.5308 28.3539 19.7546 28.13 19.7546 27.8539Z" fill="#EC715B"/>
<path d="M12.2423 22.2239H18.7856C19.596 22.2239 20.2529 22.8809 20.2529 23.6913C20.2529 24.5017 19.596 25.1586 18.7856 25.1586H12.2423C11.4319 25.1586 10.7749 24.5017 10.7749 23.6913C10.7749 22.8809 11.4319 22.2239 12.2423 22.2239Z" fill="#FFDC61"/>
<path fill-rule="evenodd" clip-rule="evenodd" d="M19.7546 24.9491C19.7546 24.6729 19.5308 24.4491 19.2546 24.4491H11.7681C11.4919 24.4491 11.2681 24.6729 11.2681 24.9491C11.2681 25.2252 11.4919 25.4491 11.7681 25.4491H19.2546C19.5308 25.4491 19.7546 25.2252 19.7546 24.9491Z" fill="#EC715B"/>
<path d="M21.9894 27.7687H28.5326C29.343 27.7687 30 28.4256 30 29.236C30 30.0464 29.343 30.7034 28.5326 30.7034H21.9894C21.179 30.7034 20.522 30.0464 20.522 29.236C20.522 28.4256 21.179 27.7687 21.9894 27.7687Z" fill="#FFDC61"/>
<path d="M21.9894 25.1283H28.5326C29.343 25.1283 30 25.7853 30 26.5957C30 27.4061 29.343 28.063 28.5326 28.063H21.9894C21.179 28.063 20.522 27.4061 20.522 26.5957C20.522 25.7853 21.179 25.1283 21.9894 25.1283Z" fill="#FFDC61"/>
<path fill-rule="evenodd" clip-rule="evenodd" d="M29.5017 27.8536C29.5017 27.5775 29.2779 27.3536 29.0017 27.3536H21.5151C21.239 27.3536 21.0151 27.5775 21.0151 27.8536C21.0151 28.1297 21.239 28.3536 21.5151 28.3536H29.0017C29.2779 28.3536 29.5017 28.1297 29.5017 27.8536Z" fill="#EC715B"/>
<path d="M21.9894 22.2237H28.5326C29.343 22.2237 30 22.8807 30 23.6911C30 24.5015 29.343 25.1585 28.5326 25.1585H21.9894C21.179 25.1585 20.522 24.5015 20.522 23.6911C20.522 22.8807 21.179 22.2237 21.9894 22.2237Z" fill="#FFDC61"/>
<path fill-rule="evenodd" clip-rule="evenodd" d="M29.5017 24.9488C29.5017 24.6727 29.2779 24.4488 29.0017 24.4488H21.5151C21.239 24.4488 21.0151 24.6727 21.0151 24.9488C21.0151 25.225 21.239 25.4488 21.5151 25.4488H29.0017C29.2779 25.4488 29.5017 25.225 29.5017 24.9488Z" fill="#EC715B"/>
<path d="M21.9894 19.2939H28.5326C29.343 19.2939 30 19.9509 30 20.7613C30 21.5717 29.343 22.2286 28.5326 22.2286H21.9894C21.179 22.2286 20.522 21.5717 20.522 20.7613C20.522 19.9509 21.179 19.2939 21.9894 19.2939Z" fill="#FFDC61"/>
<path fill-rule="evenodd" clip-rule="evenodd" d="M29.5017 22.0191C29.5017 21.743 29.2779 21.5191 29.0017 21.5191H21.5151C21.239 21.5191 21.0151 21.743 21.0151 22.0191C21.0151 22.2953 21.239 22.5191 21.5151 22.5191H29.0017C29.2779 22.5191 29.5017 22.2953 29.5017 22.0191Z" fill="#EC715B"/>
<path d="M21.9894 16.5089H28.5326C29.343 16.5089 30 17.1658 30 17.9762C30 18.7866 29.343 19.4436 28.5326 19.4436H21.9894C21.179 19.4436 20.522 18.7866 20.522 17.9762C20.522 17.1658 21.179 16.5089 21.9894 16.5089Z" fill="#FFDC61"/>
<path fill-rule="evenodd" clip-rule="evenodd" d="M29.5017 19.234C29.5017 18.9578 29.2779 18.734 29.0017 18.734H21.5151C21.239 18.734 21.0151 18.9578 21.0151 19.234C21.0151 19.5101 21.239 19.734 21.5151 19.734H29.0017C29.2779 19.734 29.5017 19.5101 29.5017 19.234Z" fill="#EC715B"/>
<path d="M21.9894 13.8037H28.5326C29.343 13.8037 30 14.4607 30 15.2711C30 16.0815 29.343 16.7385 28.5326 16.7385H21.9894C21.179 16.7385 20.522 16.0815 20.522 15.2711C20.522 14.4607 21.179 13.8037 21.9894 13.8037Z" fill="#FFDC61"/>
<path fill-rule="evenodd" clip-rule="evenodd" d="M29.5017 16.5289C29.5017 16.2528 29.2779 16.0289 29.0017 16.0289H21.5151C21.239 16.0289 21.0151 16.2528 21.0151 16.5289C21.0151 16.805 21.239 17.0289 21.5151 17.0289H29.0017C29.2779 17.0289 29.5017 16.805 29.5017 16.5289Z" fill="#EC715B"/>
<path d="M12.0503 11.3883C12.3985 12.1921 13.8595 15.0439 17.959 17.6388C18.1584 17.7644 18.12 18.0653 17.8956 18.1354L13.5832 19.5339C13.5832 19.5339 13.4348 19.5491 13.3694 19.5152C12.6192 19.1095 8.50506 16.3 7.70007 12.5636C7.67 12.4204 7.76168 12.2814 7.90077 12.2444L11.7248 11.2316C11.858 11.1967 11.9966 11.2635 12.0503 11.3883Z" fill="#5696FC"/>
<path d="M21.4481 4.22673C21.0999 5.03046 19.6389 7.88226 15.5394 10.4771C15.34 10.6028 15.3784 10.9036 15.6028 10.9738L19.9153 12.3723C19.9153 12.3723 20.0637 12.3875 20.129 12.3535C20.8792 11.9478 24.9933 9.13837 25.7983 5.40198C25.8284 5.2588 25.7367 5.11978 25.5976 5.08279L21.7736 4.07001C21.6405 4.03511 21.5018 4.10186 21.4481 4.22673Z" fill="#5696FC"/>
</svg>
