<svg width="50" height="50" viewBox="0 0 50 50" fill="none" xmlns="http://www.w3.org/2000/svg">
<rect width="50" height="50" rx="8" fill="#F8F8FA"/>
<path d="M15.8443 38.55H24.0671C25.0855 38.55 25.9111 39.3756 25.9111 40.3941C25.9111 41.4125 25.0855 42.2381 24.0671 42.2381H15.8443C14.8259 42.2381 14.0003 41.4125 14.0003 40.3941C14.0003 39.3756 14.8259 38.55 15.8443 38.55Z" fill="#FFDC61"/>
<path d="M15.8443 35.2319H24.0671C25.0855 35.2319 25.9111 36.0575 25.9111 37.076C25.9111 38.0944 25.0855 38.92 24.0671 38.92H15.8443C14.8259 38.92 14.0003 38.0944 14.0003 37.076C14.0003 36.0575 14.8259 35.2319 15.8443 35.2319Z" fill="#FFDC61"/>
<path d="M24.6567 38.6565H15.2485" stroke="#EC715B" stroke-linecap="round" stroke-linejoin="round"/>
<path d="M15.8443 31.5815H24.0671C25.0855 31.5815 25.9111 32.4071 25.9111 33.4256C25.9111 34.444 25.0855 35.2696 24.0671 35.2696H15.8443C14.8259 35.2696 14.0003 34.444 14.0003 33.4256C14.0003 32.4071 14.8259 31.5815 15.8443 31.5815Z" fill="#FFDC61"/>
<path d="M24.6567 35.0061H15.2485" stroke="#EC715B" stroke-linecap="round" stroke-linejoin="round"/>
<path d="M28.0933 38.5496H36.3161C37.3346 38.5496 38.1602 39.3752 38.1602 40.3936C38.1602 41.412 37.3346 42.2376 36.3161 42.2376H28.0933C27.0749 42.2376 26.2493 41.412 26.2493 40.3936C26.2493 39.3752 27.0749 38.5496 28.0933 38.5496Z" fill="#FFDC61"/>
<path d="M28.0933 35.2314H36.3161C37.3346 35.2314 38.1602 36.057 38.1602 37.0755C38.1602 38.0939 37.3346 38.9195 36.3161 38.9195H28.0933C27.0749 38.9195 26.2493 38.0939 26.2493 37.0755C26.2493 36.057 27.0749 35.2314 28.0933 35.2314Z" fill="#FFDC61"/>
<path d="M36.9058 38.6562H27.4975" stroke="#EC715B" stroke-linecap="round" stroke-linejoin="round"/>
<path d="M28.0933 31.5813H36.3161C37.3346 31.5813 38.1602 32.4069 38.1602 33.4253C38.1602 34.4437 37.3346 35.2693 36.3161 35.2693H28.0933C27.0749 35.2693 26.2493 34.4437 26.2493 33.4253C26.2493 32.4069 27.0749 31.5813 28.0933 31.5813Z" fill="#FFDC61"/>
<path d="M36.9058 35.0059H27.4975" stroke="#EC715B" stroke-linecap="round" stroke-linejoin="round"/>
<path d="M28.0933 27.8994H36.3161C37.3346 27.8994 38.1602 28.725 38.1602 29.7434C38.1602 30.7619 37.3346 31.5875 36.3161 31.5875H28.0933C27.0749 31.5875 26.2493 30.7619 26.2493 29.7434C26.2493 28.725 27.0749 27.8994 28.0933 27.8994Z" fill="#FFDC61"/>
<path d="M36.9058 31.324H27.4975" stroke="#EC715B" stroke-linecap="round" stroke-linejoin="round"/>
<path d="M28.0933 24.3994H36.3161C37.3346 24.3994 38.1602 25.225 38.1602 26.2434C38.1602 27.2619 37.3346 28.0875 36.3161 28.0875H28.0933C27.0749 28.0875 26.2493 27.2619 26.2493 26.2434C26.2493 25.225 27.0749 24.3994 28.0933 24.3994Z" fill="#FFDC61"/>
<path d="M36.9058 27.8242H27.4975" stroke="#EC715B" stroke-linecap="round" stroke-linejoin="round"/>
<path d="M28.0933 21H36.3161C37.3346 21 38.1602 21.8256 38.1602 22.844C38.1602 23.8624 37.3346 24.688 36.3161 24.688H28.0933C27.0749 24.688 26.2493 23.8624 26.2493 22.844C26.2493 21.8256 27.0749 21 28.0933 21Z" fill="#FFDC61"/>
<path d="M36.9058 24.4248H27.4975" stroke="#EC715B" stroke-linecap="round" stroke-linejoin="round"/>
<path d="M15.6028 17.9647C16.0404 18.9747 17.8765 22.5585 23.0282 25.8195C23.2787 25.9774 23.2305 26.3555 22.9485 26.4437L17.5291 28.2011C17.5291 28.2011 17.3426 28.2202 17.2605 28.1775C16.3178 27.6677 11.1475 24.1371 10.1359 19.4416C10.0981 19.2617 10.2133 19.087 10.3881 19.0405L15.1938 17.7677C15.3611 17.7239 15.5353 17.8077 15.6028 17.9647Z" fill="#5696FC"/>
<path d="M27.4128 8.96467C26.9753 9.9747 25.1392 13.5585 19.9874 16.8195C19.7369 16.9774 19.7851 17.3555 20.0671 17.4437L25.4865 19.2011C25.4865 19.2011 25.673 19.2202 25.7551 19.1775C26.6979 18.6677 31.8681 15.1371 32.8797 10.4416C32.9175 10.2617 32.8023 10.087 32.6275 10.0405L27.8219 8.76772C27.6546 8.72385 27.4803 8.80774 27.4128 8.96467Z" fill="#5696FC"/>
</svg>
