<svg width="180" height="206" viewBox="0 0 180 206" fill="none" xmlns="http://www.w3.org/2000/svg" aria-labelledby="title" role="img">
<title id="title">쉬는 날이에요</title>
<path d="M133 23L133 163L38 163C35.2386 163 33 160.761 33 158L33 28C33 25.2386 35.2386 23 38 23L133 23Z" fill="#F0F0F3"/>
<mask id="mask0_689_12947" style="mask-type:alpha" maskUnits="userSpaceOnUse" x="56" y="28" width="77" height="135">
<path d="M133 28L133 163L61 163C58.2386 163 56 160.761 56 158L56 33C56 30.2386 58.2386 28 61 28L133 28Z" fill="#F5F5F5"/>
</mask>
<g mask="url(#mask0_689_12947)">
<path d="M115 134.206L127.412 124.853L139.901 141.426L127.489 150.779L115 134.206Z" fill="white"/>
<path d="M123.647 145.681L136.06 136.328L139.901 141.426L127.489 150.779L123.647 145.681Z" fill="#E1E1E5"/>
<path d="M143.048 139.04L127.483 150.768L132.513 157.443C133.572 158.848 135.578 159.13 136.983 158.071L149.998 148.263C152.547 146.342 153.049 142.716 151.135 140.176C149.214 137.627 145.588 137.126 143.048 139.04Z" fill="#E1E1E5"/>
<path d="M72.852 65.8083L84.0236 141.547C85.388 150.797 96.4306 154.531 104.309 148.406L166.639 99.9464C174.585 93.7686 173.596 82.0473 164.846 78.5253L93.2115 49.78C82.9684 45.6668 71.2438 54.8963 72.852 65.8083Z" fill="#E1E1E5"/>
<path d="M109.52 77.1554C111.727 79.9932 112.036 83.4434 110.212 84.8618C108.388 86.2801 105.12 85.1294 102.914 82.2916C100.708 79.4538 100.398 76.0035 102.222 74.5852C104.046 73.1668 107.314 74.3175 109.52 77.1554Z" fill="white"/>
<path d="M107.318 78.8671C108.894 80.8941 109.185 83.3039 107.969 84.2494C106.753 85.195 104.489 84.3183 102.914 82.2913C101.338 80.2643 101.046 77.8546 102.262 76.909C103.478 75.9634 105.742 76.8401 107.318 78.8671Z" fill="#B2B2BC"/>
<path d="M98.6027 85.6431C100.809 88.4809 101.119 91.9312 99.2944 93.3496C97.4701 94.7679 94.2026 93.6172 91.9963 90.7794C89.79 87.9416 89.4804 84.4913 91.3047 83.073C93.129 81.6546 96.3964 82.8053 98.6027 85.6431Z" fill="white"/>
<path d="M96.4003 87.3549C97.9762 89.3819 98.2679 91.7917 97.0517 92.7372C95.8355 93.6828 93.572 92.8061 91.9961 90.7791C90.4201 88.7521 90.1285 86.3424 91.3447 85.3968C92.5609 84.4512 94.8244 85.3279 96.4003 87.3549Z" fill="#B2B2BC"/>
<path fill-rule="evenodd" clip-rule="evenodd" d="M111.679 87.9936C112.347 88.183 112.735 88.878 112.545 89.546C112.039 91.3303 110.976 92.9783 109.915 94.2818C108.848 95.5935 107.715 96.639 106.968 97.2197C106.42 97.6458 105.63 97.547 105.204 96.9988C104.778 96.4507 104.877 95.6609 105.425 95.2347C106.024 94.7691 107.02 93.8566 107.965 92.6948C108.917 91.5249 109.751 90.1839 110.126 88.8601C110.316 88.1921 111.011 87.8041 111.679 87.9936Z" fill="#B2B2BC"/>
<path d="M67.0308 47.8042L73.6375 42.6676L90.5148 64.3756L83.908 69.5121L67.0308 47.8042Z" fill="white"/>
</g>
<path d="M139.463 68.4165C139.417 68.3671 139.376 68.3176 139.33 68.2637C139.33 68.2637 143.087 63.8769 139.33 60.6902C139.33 60.6902 139.346 60.6722 139.371 60.6362C142.065 56.9641 135.498 52.9818 130.466 54.2358C127.065 55.0808 124 58.3305 124 64.3129C124 70.7043 127.553 73.9809 131.126 74.8214C135.722 75.9047 142.431 71.846 139.463 68.412L139.463 68.4165Z" fill="#E1E1E5"/>
<path d="M139.463 96.4165C139.417 96.3671 139.376 96.3176 139.33 96.2637C139.33 96.2637 143.087 91.8769 139.33 88.6902C139.33 88.6902 139.346 88.6722 139.371 88.6362C142.065 84.9641 135.498 80.9818 130.466 82.2358C127.065 83.0808 124 86.3305 124 92.3129C124 98.7043 127.553 101.981 131.126 102.821C135.722 103.905 142.431 99.846 139.463 96.412L139.463 96.4165Z" fill="#E1E1E5"/>
<circle cx="155" cy="98" r="8" fill="#F0F0F3"/>
<path d="M48.0287 189.328V190.16C48.0287 191.856 46.7487 193.424 44.4287 194.016L45.2127 195.328C47.8847 194.592 49.4047 192.608 49.4047 190.16V189.328H48.0287ZM48.3807 189.328V190.16C48.3807 192.528 49.8847 194.352 52.5407 195.008L53.2927 193.696C51.0047 193.168 49.7567 191.76 49.7567 190.16V189.328H48.3807ZM48.1247 196.896V202.88H49.8047V196.896H48.1247ZM54.5567 188.704V203.328H56.2207V188.704H54.5567ZM44.3487 197.824C46.9727 197.824 50.4927 197.776 53.7247 197.168L53.6127 195.952C50.4607 196.4 46.8127 196.432 44.1407 196.432L44.3487 197.824ZM59.9714 192.896V194.24H69.9874V192.896H59.9714ZM58.2434 196V197.36H71.4914V196H58.2434ZM59.9714 189.232V193.568H61.6354V189.232H59.9714ZM59.8594 201.632V202.992H70.0674V201.632H59.8594ZM59.8594 198.688V202H61.5234V198.688H59.8594ZM85.0999 188.704V196H86.7799V188.704H85.0999ZM86.3159 191.6V192.976H88.8439V191.6H86.3159ZM76.0119 189.344V194.976H77.6919V189.344H76.0119ZM76.0119 194.048V195.44H77.1959C79.3079 195.44 81.5159 195.296 83.9319 194.816L83.7399 193.44C81.4039 193.904 79.2279 194.048 77.1959 194.048H76.0119ZM77.3399 196.672V197.984H85.0999V199.2H77.3559V202.464H79.0359V200.464H86.7799V196.672H77.3399ZM77.3559 201.808V203.152H87.2599V201.808H77.3559ZM99.8427 188.688V203.344H101.523V188.688H99.8427ZM93.7307 189.776C91.5547 189.776 89.9707 191.776 89.9707 194.928C89.9707 198.08 91.5547 200.096 93.7307 200.096C95.9227 200.096 97.5067 198.08 97.5067 194.928C97.5067 191.776 95.9227 189.776 93.7307 189.776ZM93.7307 191.296C95.0107 191.296 95.8907 192.656 95.8907 194.928C95.8907 197.216 95.0107 198.592 93.7307 198.592C92.4507 198.592 91.5707 197.216 91.5707 194.928C91.5707 192.656 92.4507 191.296 93.7307 191.296ZM109.497 194.256V195.616H112.089V194.256H109.497ZM114.489 188.704V203.328H116.089V188.704H114.489ZM111.545 188.976V202.624H113.129V188.976H111.545ZM106.889 189.84C104.985 189.84 103.753 191.824 103.753 195.024C103.753 198.24 104.985 200.224 106.889 200.224C108.809 200.224 110.041 198.24 110.041 195.024C110.041 191.824 108.809 189.84 106.889 189.84ZM106.889 191.408C107.897 191.408 108.505 192.72 108.505 195.024C108.505 197.328 107.897 198.64 106.889 198.64C105.897 198.64 105.289 197.328 105.289 195.024C105.289 192.72 105.897 191.408 106.889 191.408ZM120.816 196.192V200.432H122.48V196.192H120.816ZM126.176 196.192V200.432H127.856V196.192H126.176ZM117.728 200.16V201.536H130.976V200.16H117.728ZM124.32 189.536C121.2 189.536 118.944 191.04 118.944 193.376C118.944 195.696 121.2 197.2 124.32 197.2C127.44 197.2 129.696 195.696 129.696 193.376C129.696 191.04 127.44 189.536 124.32 189.536ZM124.32 190.848C126.528 190.848 128.064 191.824 128.064 193.376C128.064 194.912 126.528 195.888 124.32 195.888C122.112 195.888 120.576 194.912 120.576 193.376C120.576 191.824 122.112 190.848 124.32 190.848ZM133.239 198.256H134.471L134.727 191.856L134.775 189.936H132.919L132.967 191.856L133.239 198.256ZM133.847 202.224C134.551 202.224 135.079 201.68 135.079 200.928C135.079 200.16 134.551 199.632 133.847 199.632C133.159 199.632 132.615 200.16 132.615 200.928C132.615 201.68 133.159 202.224 133.847 202.224Z" fill="#9E9EA9"/>
</svg>
