<svg width="180" height="180" viewBox="0 0 180 180" fill="none" xmlns="http://www.w3.org/2000/svg">
<path d="M133 23L133 163L38 163C35.2386 163 33 160.761 33 158L33 28C33 25.2386 35.2386 23 38 23L133 23Z" fill="#F0F0F3"/>
<mask id="mask0_1061_12119" style="mask-type:alpha" maskUnits="userSpaceOnUse" x="56" y="28" width="77" height="135">
<path d="M133 28L133 163L61 163C58.2386 163 56 160.761 56 158L56 33C56 30.2386 58.2386 28 61 28L133 28Z" fill="#F5F5F5"/>
</mask>
<g mask="url(#mask0_1061_12119)">
<path d="M115 134.206L127.412 124.853L139.901 141.426L127.489 150.779L115 134.206Z" fill="white"/>
<path d="M123.647 145.681L136.059 136.328L139.901 141.426L127.489 150.779L123.647 145.681Z" fill="#E1E1E5"/>
<path d="M143.048 139.04L127.483 150.768L132.513 157.443C133.572 158.848 135.578 159.13 136.983 158.071L149.998 148.263C152.547 146.342 153.049 142.716 151.135 140.176C149.214 137.627 145.588 137.126 143.048 139.04Z" fill="#E1E1E5"/>
<path d="M72.8518 65.8083L84.0235 141.547C85.3879 150.797 96.4305 154.531 104.309 148.406L166.639 99.9464C174.585 93.7686 173.596 82.0473 164.846 78.5253L93.2114 49.78C82.9683 45.6668 71.2437 54.8963 72.8518 65.8083Z" fill="#E1E1E5"/>
<path d="M109.52 77.1554C111.726 79.9932 112.036 83.4434 110.212 84.8618C108.388 86.2801 105.12 85.1294 102.914 82.2916C100.707 79.4538 100.398 76.0035 102.222 74.5852C104.046 73.1668 107.314 74.3175 109.52 77.1554Z" fill="white"/>
<path d="M107.318 78.8671C108.894 80.8941 109.185 83.3039 107.969 84.2494C106.753 85.195 104.489 84.3183 102.914 82.2913C101.338 80.2643 101.046 77.8546 102.262 76.909C103.478 75.9634 105.742 76.8401 107.318 78.8671Z" fill="#B2B2BC"/>
<path d="M98.6028 85.6431C100.809 88.4809 101.119 91.9312 99.2945 93.3496C97.4702 94.7679 94.2028 93.6172 91.9965 90.7794C89.7902 87.9416 89.4805 84.4913 91.3048 83.073C93.1291 81.6546 96.3965 82.8053 98.6028 85.6431Z" fill="white"/>
<path d="M96.4006 87.3549C97.9765 89.3819 98.2681 91.7917 97.0519 92.7372C95.8357 93.6828 93.5722 92.8061 91.9963 90.7791C90.4204 88.7521 90.1287 86.3424 91.3449 85.3968C92.5611 84.4512 94.8246 85.3279 96.4006 87.3549Z" fill="#B2B2BC"/>
<path fill-rule="evenodd" clip-rule="evenodd" d="M111.679 87.9936C112.347 88.183 112.734 88.878 112.545 89.546C112.039 91.3303 110.976 92.9783 109.915 94.2818C108.848 95.5935 107.715 96.639 106.968 97.2197C106.42 97.6458 105.63 97.547 105.204 96.9988C104.778 96.4507 104.877 95.6609 105.425 95.2347C106.024 94.7691 107.02 93.8566 107.965 92.6948C108.917 91.5248 109.751 90.1839 110.126 88.8601C110.316 88.1921 111.011 87.8041 111.679 87.9936Z" fill="#B2B2BC"/>
<path d="M67.0306 47.8042L73.6373 42.6676L90.5146 64.3756L83.9078 69.5121L67.0306 47.8042Z" fill="white"/>
</g>
<path d="M139.463 68.4165C139.417 68.3671 139.376 68.3176 139.33 68.2637C139.33 68.2637 143.087 63.8769 139.33 60.6902C139.33 60.6902 139.346 60.6722 139.371 60.6362C142.065 56.9641 135.498 52.9818 130.466 54.2358C127.065 55.0808 124 58.3305 124 64.3129C124 70.7043 127.553 73.9809 131.126 74.8214C135.722 75.9047 142.431 71.846 139.463 68.412L139.463 68.4165Z" fill="#E1E1E5"/>
<path d="M139.463 96.4165C139.417 96.3671 139.376 96.3176 139.33 96.2637C139.33 96.2637 143.087 91.8769 139.33 88.6902C139.33 88.6902 139.346 88.6722 139.371 88.6362C142.065 84.9641 135.498 80.9818 130.466 82.2358C127.065 83.0808 124 86.3305 124 92.3129C124 98.7043 127.553 101.981 131.126 102.821C135.722 103.905 142.431 99.846 139.463 96.412L139.463 96.4165Z" fill="#E1E1E5"/>
<circle cx="155" cy="98" r="8" fill="#F0F0F3"/>
</svg>
