<svg width="180" height="138" viewBox="0 0 180 138" fill="none" xmlns="http://www.w3.org/2000/svg">
<path d="M62.2606 53.5538C64.0985 56.0288 71.3931 64.6293 87.523 70.2328C88.3071 70.5035 88.4169 71.5652 87.7043 71.9857L74.0481 80.2377C74.0481 80.2377 73.5517 80.4088 73.3006 80.3449C70.4044 79.5564 54.0519 73.2294 48.2958 61.0712C48.0779 60.6047 48.2805 60.0547 48.7275 59.8164L61.0194 53.2779C61.4476 53.0515 61.9763 53.169 62.2606 53.5538Z" fill="#F0F0F3"/>
<path d="M92.0442 27.5991C90.8665 30.448 85.8938 40.5699 71.6213 49.9437C70.9271 50.3978 71.08 51.4541 71.8737 51.6878L87.1319 56.354C87.1319 56.354 87.655 56.3986 87.883 56.2754C90.4988 54.8033 104.81 44.6735 107.422 31.4776C107.52 30.9719 107.189 30.4881 106.697 30.3662L93.1804 27.0284C92.7099 26.9134 92.2259 27.1565 92.0442 27.5991Z" fill="#F0F0F3"/>
<path d="M66.7139 110.97H90.4014C93.3352 110.97 95.7135 113.348 95.7135 116.282C95.7135 119.216 93.3352 121.594 90.4014 121.594H66.7139C63.7801 121.594 61.4018 119.216 61.4018 116.282C61.4018 113.348 63.7801 110.97 66.7139 110.97Z" fill="#F0F0F3"/>
<path d="M66.7139 101.412H90.4014C93.3352 101.412 95.7135 103.79 95.7135 106.724C95.7135 109.657 93.3352 112.036 90.4014 112.036H66.7139C63.7801 112.036 61.4018 109.657 61.4018 106.724C61.4018 103.79 63.7801 101.412 66.7139 101.412Z" fill="#F0F0F3"/>
<path d="M92.0996 111.277H64.9971" stroke="#E1E1E5" stroke-width="3" stroke-linecap="round" stroke-linejoin="round"/>
<path d="M66.714 90.896H90.4015C93.3353 90.896 95.7136 93.2743 95.7136 96.2081C95.7136 99.1418 93.3353 101.52 90.4015 101.52H66.714C63.7802 101.52 61.4019 99.1418 61.4019 96.2081C61.4019 93.2743 63.7802 90.896 66.714 90.896Z" fill="#F0F0F3"/>
<path d="M92.0996 100.761H64.9971" stroke="#E1E1E5" stroke-width="3" stroke-linecap="round" stroke-linejoin="round"/>
<path d="M102 110.97H125.688C128.622 110.97 131 113.348 131 116.282C131 119.216 128.622 121.594 125.688 121.594H102C99.0666 121.594 96.6883 119.216 96.6883 116.282C96.6883 113.348 99.0666 110.97 102 110.97Z" fill="#F0F0F3"/>
<path d="M102 101.412H125.688C128.622 101.412 131 103.79 131 106.724C131 109.657 128.622 112.036 125.688 112.036H102C99.0666 112.036 96.6883 109.657 96.6883 106.724C96.6883 103.79 99.0666 101.412 102 101.412Z" fill="#F0F0F3"/>
<path d="M127.386 111.277H100.284" stroke="#E1E1E5" stroke-width="3" stroke-linecap="round" stroke-linejoin="round"/>
<path d="M102 90.8965H125.688C128.622 90.8965 131 93.2748 131 96.2086C131 99.1423 128.622 101.521 125.688 101.521H102C99.0666 101.521 96.6883 99.1423 96.6883 96.2086C96.6883 93.2748 99.0666 90.8965 102 90.8965Z" fill="#F0F0F3"/>
<path d="M127.386 100.761H100.284" stroke="#E1E1E5" stroke-width="3" stroke-linecap="round" stroke-linejoin="round"/>
<path d="M102 80.29H125.688C128.622 80.29 131 82.6683 131 85.6021C131 88.5359 128.622 90.9142 125.688 90.9142H102C99.0666 90.9142 96.6883 88.5359 96.6883 85.6021C96.6883 82.6683 99.0666 80.29 102 80.29Z" fill="#F0F0F3"/>
<path d="M127.386 90.1553H100.284" stroke="#E1E1E5" stroke-width="3" stroke-linecap="round" stroke-linejoin="round"/>
<path d="M102 70.208H125.688C128.622 70.208 131 72.5863 131 75.5201C131 78.4539 128.622 80.8322 125.688 80.8322H102C99.0666 80.8322 96.6883 78.4539 96.6883 75.5201C96.6883 72.5863 99.0666 70.208 102 70.208Z" fill="#F0F0F3"/>
<path d="M127.386 80.0732H100.284" stroke="#E1E1E5" stroke-width="3" stroke-linecap="round" stroke-linejoin="round"/>
<path d="M102 60.415H125.688C128.621 60.415 131 62.7933 131 65.7271C131 68.6609 128.621 71.0392 125.688 71.0392H102C99.0664 71.0392 96.6881 68.6609 96.6881 65.7271C96.6881 62.7933 99.0664 60.415 102 60.415Z" fill="#F0F0F3"/>
<path d="M127.386 70.2803H100.284" stroke="#E1E1E5" stroke-width="3" stroke-linecap="round" stroke-linejoin="round"/>
</svg>
