<svg width="24" height="24" viewBox="0 0 24 24" fill="none" xmlns="http://www.w3.org/2000/svg">
<path fill-rule="evenodd" clip-rule="evenodd" d="M10.7086 8.36263C10.128 8.36263 9.60165 8.86671 9.60165 9.55333C9.60165 10.0209 9.70231 10.2348 9.79142 10.3485C9.8868 10.4702 10.0472 10.5783 10.363 10.6904L14.1138 11.9934C14.5316 12.1415 14.9847 12.3634 15.3193 12.7904C15.6605 13.2255 15.8063 13.7791 15.8063 14.4464C15.8063 15.8435 14.714 17.0324 13.304 17.0324H10.9691C9.408 17.0324 8.2063 15.7202 8.2063 14.1673C8.2063 13.782 8.51866 13.4696 8.90397 13.4696C9.28929 13.4696 9.60165 13.782 9.60165 14.1673C9.60165 15.0143 10.2418 15.6371 10.9691 15.6371H13.304C13.8846 15.6371 14.4109 15.133 14.4109 14.4464C14.4109 13.9787 14.3103 13.7649 14.2212 13.6512C14.1258 13.5295 13.9654 13.4214 13.6496 13.3093L9.8988 12.0063C9.481 11.8582 9.02792 11.6362 8.69327 11.2093C8.35214 10.7742 8.2063 10.2206 8.2063 9.55333C8.2063 8.15623 9.29856 6.96729 10.7086 6.96729H13.0435C14.6046 6.96729 15.8063 8.27945 15.8063 9.8324C15.8063 10.2177 15.4939 10.5301 15.1086 10.5301C14.7233 10.5301 14.4109 10.2177 14.4109 9.8324C14.4109 8.98535 13.7708 8.36263 13.0435 8.36263H10.7086Z" fill="current"/>
<path fill-rule="evenodd" clip-rule="evenodd" d="M12.0001 5.72095C12.3854 5.72095 12.6978 6.03331 12.6978 6.41862V17.5814C12.6978 17.9667 12.3854 18.2791 12.0001 18.2791C11.6148 18.2791 11.3025 17.9667 11.3025 17.5814V6.41862C11.3025 6.03331 11.6148 5.72095 12.0001 5.72095Z" fill="current"/>
<path fill-rule="evenodd" clip-rule="evenodd" d="M4.70263 4.70263C3.85098 5.55429 3.39535 6.95253 3.39535 9.2093V14.7907C3.39535 17.0475 3.85098 18.4457 4.70263 19.2974C5.55429 20.149 6.95253 20.6047 9.2093 20.6047H14.7907C17.0475 20.6047 18.4457 20.149 19.2974 19.2974C20.149 18.4457 20.6047 17.0475 20.6047 14.7907V9.2093C20.6047 6.95253 20.149 5.55429 19.2974 4.70263C18.4457 3.85098 17.0475 3.39535 14.7907 3.39535H9.2093C6.95253 3.39535 5.55429 3.85098 4.70263 4.70263ZM3.71597 3.71597C4.95734 2.47461 6.81491 2 9.2093 2H14.7907C17.1851 2 19.0427 2.47461 20.284 3.71597C21.5254 4.95734 22 6.81491 22 9.2093V14.7907C22 17.1851 21.5254 19.0427 20.284 20.284C19.0427 21.5254 17.1851 22 14.7907 22H9.2093C6.81491 22 4.95734 21.5254 3.71597 20.284C2.47461 19.0427 2 17.1851 2 14.7907V9.2093C2 6.81491 2.47461 4.95734 3.71597 3.71597Z" fill="current"/>
</svg>
