<svg width="60" height="60" viewBox="0 0 60 60" fill="none" xmlns="http://www.w3.org/2000/svg">
<circle cx="30" cy="30" r="30" fill="#EC715B"/>
<path d="M20.0933 33.4676C20.0602 32.9145 20.4819 32.4393 21.035 32.4062L26.0427 32.107C26.5959 32.074 27.0711 32.4956 27.1041 33.0487L27.3435 37.0549C27.3765 37.608 26.9549 38.0832 26.4018 38.1163L21.394 38.4155C20.8409 38.4485 20.3657 38.0269 20.3327 37.4738L20.0933 33.4676Z" fill="white"/>
<path d="M25.5117 28.6499C22.5708 28.6499 20.1868 26.2659 20.1868 23.325C20.1868 20.3841 22.5708 18 25.5117 18C28.4526 18 30.8367 20.3841 30.8367 23.325C30.8367 26.2659 28.4526 28.6499 25.5117 28.6499Z" fill="white"/>
<path d="M25.5125 25.9246C24.077 25.9246 22.9134 24.761 22.9134 23.3255C22.9134 21.8901 24.077 20.7264 25.5125 20.7264C26.9479 20.7264 28.1116 21.8901 28.1116 23.3255C28.1116 24.761 26.9479 25.9246 25.5125 25.9246Z" fill="#3F3F43"/>
<path d="M15.3249 28.6499C12.3841 28.6499 9.99999 26.2659 9.99999 23.325C9.99999 20.3841 12.3841 18 15.3249 18C18.2658 18 20.6499 20.3841 20.6499 23.325C20.6499 26.2659 18.2658 28.6499 15.3249 28.6499Z" fill="white"/>
<path d="M14.8943 25.9246C13.4589 25.9246 12.2952 24.761 12.2952 23.3255C12.2952 21.8901 13.4589 20.7264 14.8943 20.7264C16.3298 20.7264 17.4934 21.8901 17.4934 23.3255C17.4934 24.761 16.3298 25.9246 14.8943 25.9246Z" fill="#3F3F43"/>
<path fill-rule="evenodd" clip-rule="evenodd" d="M23.9979 32.8776C24.1364 32.8763 24.2498 32.9876 24.2511 33.1261L24.2976 38.0644C24.2989 38.2029 24.1877 38.3163 24.0492 38.3176C23.9106 38.3189 23.7973 38.2076 23.796 38.0691L23.7494 33.1308C23.7481 32.9923 23.8594 32.8789 23.9979 32.8776Z" fill="#3F3F43"/>
<path fill-rule="evenodd" clip-rule="evenodd" d="M32.9117 29.208C32.6071 28.7451 31.985 28.6167 31.522 28.9212C28.5876 30.8516 22.043 33.4744 14.431 30.2371C13.9211 30.0202 13.3319 30.2578 13.115 30.7677C12.8982 31.2776 13.1357 31.8668 13.6457 32.0837C22.0719 35.6674 29.3342 32.7624 32.6249 30.5976C33.0878 30.2931 33.2162 29.6709 32.9117 29.208Z" fill="#3F3F43"/>
</svg>
