<svg width="60" height="60" viewBox="0 0 60 60" fill="none" xmlns="http://www.w3.org/2000/svg">
<circle cx="30" cy="30" r="30" fill="#5CBF7B"/>
<path d="M25.5117 28.6499C22.5708 28.6499 20.1868 26.2659 20.1868 23.325C20.1868 20.3841 22.5708 18 25.5117 18C28.4526 18 30.8367 20.3841 30.8367 23.325C30.8367 26.2659 28.4526 28.6499 25.5117 28.6499Z" fill="white"/>
<path d="M25.5127 25.9246C24.0773 25.9246 22.9136 24.761 22.9136 23.3255C22.9136 21.8901 24.0773 20.7264 25.5127 20.7264C26.9482 20.7264 28.1118 21.8901 28.1118 23.3255C28.1118 24.761 26.9482 25.9246 25.5127 25.9246Z" fill="#3F3F43"/>
<path d="M15.3249 28.6499C12.3841 28.6499 9.99999 26.2659 9.99999 23.325C9.99999 20.3841 12.3841 18 15.3249 18C18.2658 18 20.6499 20.3841 20.6499 23.325C20.6499 26.2659 18.2658 28.6499 15.3249 28.6499Z" fill="white"/>
<path d="M14.8943 25.9246C13.4589 25.9246 12.2952 24.761 12.2952 23.3255C12.2952 21.8901 13.4589 20.7264 14.8943 20.7264C16.3298 20.7264 17.4934 21.8901 17.4934 23.3255C17.4934 24.761 16.3298 25.9246 14.8943 25.9246Z" fill="#3F3F43"/>
<path d="M25.5114 41.1521C23.6068 41.1521 22.0629 39.6081 22.0629 37.7036C22.0629 35.799 23.6068 34.255 25.5114 34.255C27.416 34.255 28.96 35.799 28.96 37.7036C28.96 39.6081 27.416 41.1521 25.5114 41.1521Z" fill="#FFDC61"/>
<path d="M22.0565 32.4797H28.96V37.7033H22.0565V32.4797Z" fill="#FFDC61"/>
<path fill-rule="evenodd" clip-rule="evenodd" d="M25.5116 32.9697C25.3731 32.9697 25.2608 33.082 25.2608 33.2206V38.4885C25.2608 38.627 25.3731 38.7393 25.5116 38.7393C25.6501 38.7393 25.7625 38.627 25.7625 38.4885V33.2206C25.7625 33.082 25.6501 32.9697 25.5116 32.9697Z" fill="#3F3F43"/>
<path fill-rule="evenodd" clip-rule="evenodd" d="M32.9117 29.2079C32.6071 28.745 31.985 28.6165 31.522 28.9211C28.5876 30.8515 22.043 33.4743 14.431 30.237C13.9211 30.0201 13.3319 30.2577 13.115 30.7676C12.8982 31.2775 13.1357 31.8667 13.6457 32.0836C22.0719 35.6672 29.3342 32.7622 32.6249 30.5975C33.0878 30.293 33.2162 29.6708 32.9117 29.2079Z" fill="#3F3F43"/>
</svg>
