<svg width="60" height="60" viewBox="0 0 60 60" fill="none" xmlns="http://www.w3.org/2000/svg">
<circle cx="30" cy="30" r="30" fill="#5696FC"/>
<path d="M13.6315 36.152C11.8743 36.152 10.633 37.8527 11.1408 39.5293C12.5917 44.3092 17.0249 47.7832 22.2804 47.7832C27.5358 47.7832 31.969 44.3092 33.4199 39.5293C33.9277 37.8527 32.6864 36.152 30.9292 36.152H13.6395H13.6315Z" fill="#EC715B"/>
<path d="M18.3713 36.152C18.3713 38.1671 20.1205 39.7953 22.2807 39.7953C24.4409 39.7953 26.19 38.159 26.19 36.152H18.3713Z" fill="white"/>
<path d="M26.5743 33.6459C28.6098 32.9395 29.4187 29.9428 28.3809 26.9526C27.3431 23.9624 24.8517 22.1111 22.8162 22.8175C20.7807 23.524 19.9719 26.5207 21.0097 29.5109C22.0475 32.501 24.5388 34.3524 26.5743 33.6459Z" fill="white"/>
<path d="M27.4322 32.8203C28.8479 32.5012 29.5727 30.3662 29.0511 28.0515C28.5295 25.7368 26.9589 24.119 25.5432 24.4381C24.1274 24.7571 23.4026 26.8922 23.9242 29.2069C24.4459 31.5216 26.0164 33.1393 27.4322 32.8203Z" fill="#3F3F43"/>
<path d="M16.6744 33.6504C18.7099 32.944 19.5188 29.9473 18.481 26.9571C17.4432 23.9669 14.9518 22.1156 12.9163 22.8221C10.8808 23.5285 10.072 26.5252 11.1098 29.5154C12.1476 32.5055 14.6389 34.3569 16.6744 33.6504Z" fill="white"/>
<path d="M17.5352 32.8203C18.9509 32.5012 19.6758 30.3662 19.1541 28.0515C18.6325 25.7368 17.0619 24.119 15.6462 24.4381C14.2304 24.7571 13.5056 26.8922 14.0273 29.2069C14.5489 31.5216 16.1195 33.1393 17.5352 32.8203Z" fill="#3F3F43"/>
</svg>
