<svg width="60" height="60" viewBox="0 0 60 60" fill="none" xmlns="http://www.w3.org/2000/svg">
<circle cx="30" cy="30" r="30" fill="#5CBF7B"/>
<ellipse cx="16.9899" cy="21.4716" rx="3.91303" ry="6.08693" fill="white"/>
<ellipse cx="15.6856" cy="21.473" rx="2.60868" ry="4.34781" fill="#3F3F43"/>
<ellipse cx="29.164" cy="21.4722" rx="3.91303" ry="6.08693" fill="white"/>
<ellipse cx="27.8597" cy="21.4732" rx="2.60868" ry="4.34781" fill="#3F3F43"/>
<path fill-rule="evenodd" clip-rule="evenodd" d="M27.3553 30.3907C27.7609 30.8638 27.7061 31.5761 27.233 31.9816C25.8307 33.1835 24.0831 33.9007 22.5262 34.32C20.964 34.7407 19.5055 34.8852 18.6029 34.8852C17.9798 34.8852 17.4746 34.3801 17.4746 33.7569C17.4746 33.1338 17.9798 32.6287 18.6029 32.6287C19.3086 32.6287 20.5698 32.51 21.9393 32.1411C23.3141 31.7708 24.7102 31.172 25.7644 30.2683C26.2375 29.8628 26.9498 29.9176 27.3553 30.3907Z" fill="#3F3F43"/>
</svg>
