<svg width="60" height="60" viewBox="0 0 60 60" fill="none" xmlns="http://www.w3.org/2000/svg">
<circle cx="30" cy="30" r="30" fill="#878793"/>
<path d="M22.0511 29.487C25.733 29.487 28.7177 26.5022 28.7177 22.8204C28.7177 19.1385 25.733 16.1538 22.0511 16.1538C18.3693 16.1538 15.3845 19.1385 15.3845 22.8204C15.3845 26.5022 18.3693 29.487 22.0511 29.487Z" fill="white"/>
<path d="M36.4954 29.487C40.1773 29.487 43.162 26.5022 43.162 22.8204C43.162 19.1385 40.1773 16.1538 36.4954 16.1538C32.8136 16.1538 29.8289 19.1385 29.8289 22.8204C29.8289 26.5022 32.8136 29.487 36.4954 29.487Z" fill="white"/>
<path d="M22.0511 26.1536C23.892 26.1536 25.3844 24.6613 25.3844 22.8204C25.3844 20.9794 23.892 19.4871 22.0511 19.4871C20.2101 19.4871 18.7178 20.9794 18.7178 22.8204C18.7178 24.6613 20.2101 26.1536 22.0511 26.1536Z" fill="#3F3F43"/>
<path d="M36.4954 26.1536C38.3363 26.1536 39.8287 24.6613 39.8287 22.8204C39.8287 20.9794 38.3363 19.4871 36.4954 19.4871C34.6545 19.4871 33.1621 20.9794 33.1621 22.8204C33.1621 24.6613 34.6545 26.1536 36.4954 26.1536Z" fill="#3F3F43"/>
<path fill-rule="evenodd" clip-rule="evenodd" d="M44.2466 31.4683C44.3797 32.0674 44.002 32.6609 43.403 32.794L28.4031 36.1273C27.8041 36.2604 27.2106 35.8827 27.0775 35.2837C26.9444 34.6847 27.3221 34.0911 27.9211 33.958L42.9209 30.6247C43.5199 30.4916 44.1135 30.8693 44.2466 31.4683Z" fill="#3F3F43"/>
</svg>
