<svg width="38" height="38" viewBox="0 0 38 38" fill="none" xmlns="http://www.w3.org/2000/svg">
<path d="M0 8C0 3.58172 3.58172 0 8 0H30C34.4183 0 38 3.58172 38 8V30C38 34.4183 34.4183 38 30 38H8C3.58172 38 0 34.4183 0 30V8Z" fill="#5CBF7B"/>
<path d="M23.4603 19.6146C20.5292 19.6146 18.153 17.2384 18.153 14.3073C18.153 11.3761 20.5292 9 23.4603 9C26.3914 9 28.7676 11.3761 28.7676 14.3073C28.7676 17.2384 26.3914 19.6146 23.4603 19.6146Z" fill="white"/>
<path d="M23.4611 16.8981C22.0304 16.8981 20.8706 15.7383 20.8706 14.3076C20.8706 12.8769 22.0304 11.7172 23.4611 11.7172C24.8917 11.7172 26.0515 12.8769 26.0515 14.3076C26.0515 15.7383 24.8917 16.8981 23.4611 16.8981Z" fill="#3F3F43"/>
<path d="M13.3072 19.6146C10.3761 19.6146 7.99995 17.2384 7.99995 14.3073C7.99995 11.3761 10.3761 9 13.3072 9C16.2384 9 18.6145 11.3761 18.6145 14.3073C18.6145 17.2384 16.2384 19.6146 13.3072 19.6146Z" fill="white"/>
<path d="M12.878 16.8981C11.4474 16.8981 10.2876 15.7383 10.2876 14.3076C10.2876 12.8769 11.4474 11.7172 12.878 11.7172C14.3087 11.7172 15.4685 12.8769 15.4685 14.3076C15.4685 15.7383 14.3087 16.8981 12.878 16.8981Z" fill="#3F3F43"/>
<path d="M23.4601 32.0751C21.5619 32.0751 20.023 30.5363 20.023 28.638C20.023 26.7398 21.5619 25.2009 23.4601 25.2009C25.3584 25.2009 26.8972 26.7398 26.8972 28.638C26.8972 30.5363 25.3584 32.0751 23.4601 32.0751Z" fill="#FFDC61"/>
<path d="M20.0167 23.4316H26.8972V28.6378H20.0167V23.4316Z" fill="#FFDC61"/>
<path fill-rule="evenodd" clip-rule="evenodd" d="M23.4604 23.9202C23.3224 23.9202 23.2104 24.0321 23.2104 24.1702V29.4206C23.2104 29.5586 23.3224 29.6706 23.4604 29.6706C23.5985 29.6706 23.7104 29.5586 23.7104 29.4206V24.1702C23.7104 24.0321 23.5985 23.9202 23.4604 23.9202Z" fill="#3F3F43"/>
<path fill-rule="evenodd" clip-rule="evenodd" d="M30.8356 20.1709C30.532 19.7095 29.9119 19.5815 29.4505 19.885C26.5258 21.809 20.003 24.4231 12.4163 21.1965C11.908 20.9804 11.3208 21.2172 11.1047 21.7254C10.8885 22.2336 11.1253 22.8209 11.6335 23.037C20.0318 26.6088 27.27 23.7134 30.5497 21.5559C31.0111 21.2524 31.1391 20.6323 30.8356 20.1709Z" fill="#3F3F43"/>
</svg>
