<svg width="38" height="38" viewBox="0 0 38 38" fill="none" xmlns="http://www.w3.org/2000/svg">
<rect width="38" height="38" rx="8" fill="#5696FC"/>
<path d="M11.9678 20.4507C10.5082 20.4507 9.47715 21.8634 9.89896 23.256C11.1041 27.2264 14.7866 30.1121 19.1519 30.1121C23.5173 30.1121 27.1998 27.2264 28.4049 23.256C28.8267 21.8634 27.7956 20.4507 26.3361 20.4507H11.9745H11.9678Z" fill="#EC715B"/>
<path d="M15.9048 20.4507C15.9048 22.1245 17.3577 23.477 19.152 23.477C20.9464 23.477 22.3993 22.1178 22.3993 20.4507H15.9048Z" fill="white"/>
<path d="M22.7187 18.3696C24.4095 17.7828 25.0813 15.2936 24.2193 12.8099C23.3573 10.3261 21.2878 8.78831 19.5971 9.37512C17.9063 9.96192 17.2345 12.4511 18.0965 14.9349C18.9585 17.4186 21.0279 18.9564 22.7187 18.3696Z" fill="white"/>
<path d="M23.4313 17.6835C24.6073 17.4184 25.2093 15.645 24.776 13.7223C24.3427 11.7996 23.0382 10.4558 21.8622 10.7208C20.6862 10.9858 20.0842 12.7593 20.5175 14.682C20.9508 16.6047 22.2553 17.9485 23.4313 17.6835Z" fill="#3F3F43"/>
<path d="M14.4956 18.373C16.1863 17.7862 16.8582 15.297 15.9962 12.8133C15.1341 10.3295 13.0647 8.79173 11.3739 9.37854C9.68314 9.96534 9.01131 12.4545 9.87333 14.9383C10.7353 17.422 12.8048 18.9598 14.4956 18.373Z" fill="white"/>
<path d="M15.2103 17.6835C16.3863 17.4184 16.9884 15.645 16.5551 13.7223C16.1218 11.7996 14.8172 10.4558 13.6412 10.7208C12.4653 10.9858 11.8632 12.7593 12.2965 14.682C12.7298 16.6047 14.0344 17.9485 15.2103 17.6835Z" fill="#3F3F43"/>
</svg>
