<svg width="38" height="38" viewBox="0 0 38 38" fill="none" xmlns="http://www.w3.org/2000/svg">
<path d="M0 8C0 3.58172 3.58172 0 8 0H30C34.4183 0 38 3.58172 38 8V30C38 34.4183 34.4183 38 30 38H8C3.58172 38 0 34.4183 0 30V8Z" fill="#5696FC"/>
<path d="M12 23C15.3137 23 18 20.3137 18 17C18 13.6863 15.3137 11 12 11C8.68629 11 6 13.6863 6 17C6 20.3137 8.68629 23 12 23Z" fill="white"/>
<path d="M25 23C28.3137 23 31 20.3137 31 17C31 13.6863 28.3137 11 25 11C21.6863 11 19 13.6863 19 17C19 20.3137 21.6863 23 25 23Z" fill="white"/>
<path d="M12 20C13.6569 20 15 18.6569 15 17C15 15.3431 13.6569 14 12 14C10.3431 14 9 15.3431 9 17C9 18.6569 10.3431 20 12 20Z" fill="#3F3F43"/>
<path d="M25 20C26.6569 20 28 18.6569 28 17C28 15.3431 26.6569 14 25 14C23.3431 14 22 15.3431 22 17C22 18.6569 23.3431 20 25 20Z" fill="#3F3F43"/>
<path fill-rule="evenodd" clip-rule="evenodd" d="M31.9762 24.783C32.096 25.3222 31.756 25.8563 31.2169 25.9762L17.7169 28.9762C17.1778 29.096 16.6436 28.756 16.5238 28.2169C16.404 27.6778 16.7439 27.1436 17.283 27.0238L30.783 24.0238C31.3222 23.904 31.8563 24.2439 31.9762 24.783Z" fill="#3F3F43"/>
</svg>
