<svg width="38" height="38" viewBox="0 0 38 38" fill="none" xmlns="http://www.w3.org/2000/svg">
<path d="M0 8C0 3.58172 3.58172 0 8 0H30C34.4183 0 38 3.58172 38 8V30C38 34.4183 34.4183 38 30 38H8C3.58172 38 0 34.4183 0 30V8Z" fill="#EC715B"/>
<path d="M16.5223 15.9677C16.5223 18.9473 14.9695 21.3627 13.0541 21.3627C11.1387 21.3627 9.58594 18.9473 9.58594 15.9677C9.58594 12.9882 11.1387 10.5728 13.0541 10.5728C14.9695 10.5728 16.5223 12.9882 16.5223 15.9677Z" fill="white"/>
<path d="M14.2102 15.9685C14.2102 18.0968 13.175 19.8221 11.8981 19.8221C10.6211 19.8221 9.58594 18.0968 9.58594 15.9685C9.58594 13.8403 10.6211 12.115 11.8981 12.115C13.175 12.115 14.2102 13.8403 14.2102 15.9685Z" fill="#3F3F43"/>
<path d="M27.3123 15.9682C27.3123 18.9477 25.7596 21.3631 23.8442 21.3631C21.9287 21.3631 20.376 18.9477 20.376 15.9682C20.376 12.9886 21.9287 10.5732 23.8442 10.5732C25.7596 10.5732 27.3123 12.9886 27.3123 15.9682Z" fill="white"/>
<path d="M25.0002 15.9691C25.0002 18.0974 23.9651 19.8227 22.6881 19.8227C21.4111 19.8227 20.376 18.0974 20.376 15.9691C20.376 13.8409 21.4111 12.1156 22.6881 12.1156C23.9651 12.1156 25.0002 13.8409 25.0002 15.9691Z" fill="#3F3F43"/>
<path fill-rule="evenodd" clip-rule="evenodd" d="M22.2411 23.8727C22.6005 24.292 22.552 24.9233 22.1326 25.2827C20.8898 26.348 19.3409 26.9836 17.9609 27.3552C16.5764 27.7281 15.2837 27.8562 14.4836 27.8562C13.9314 27.8562 13.4836 27.4085 13.4836 26.8562C13.4836 26.3039 13.9314 25.8562 14.4836 25.8562C15.1092 25.8562 16.227 25.751 17.4408 25.4241C18.6593 25.0959 19.8967 24.5651 20.8311 23.7642C21.2504 23.4048 21.8817 23.4533 22.2411 23.8727Z" fill="#3F3F43"/>
</svg>
