<svg width="38" height="38" viewBox="0 0 38 38" fill="none" xmlns="http://www.w3.org/2000/svg">
<path d="M0 8C0 3.58172 3.58172 0 8 0H30C34.4183 0 38 3.58172 38 8V30C38 34.4183 34.4183 38 30 38H8C3.58172 38 0 34.4183 0 30V8Z" fill="#EC715B"/>
<path d="M18.0596 24.4162C18.0267 23.8649 18.4469 23.3913 18.9982 23.3583L23.9893 23.0601C24.5406 23.0272 25.0142 23.4474 25.0472 23.9987L25.2858 27.9916C25.3187 28.5429 24.8985 29.0165 24.3472 29.0494L19.3561 29.3476C18.8048 29.3806 18.3312 28.9604 18.2982 28.4091L18.0596 24.4162Z" fill="white"/>
<path d="M23.4603 19.6146C20.5292 19.6146 18.153 17.2384 18.153 14.3073C18.153 11.3761 20.5292 9 23.4603 9C26.3914 9 28.7676 11.3761 28.7676 14.3073C28.7676 17.2384 26.3914 19.6146 23.4603 19.6146Z" fill="white"/>
<path d="M23.4611 16.8981C22.0304 16.8981 20.8706 15.7383 20.8706 14.3076C20.8706 12.8769 22.0304 11.7172 23.4611 11.7172C24.8917 11.7172 26.0515 12.8769 26.0515 14.3076C26.0515 15.7383 24.8917 16.8981 23.4611 16.8981Z" fill="#3F3F43"/>
<path d="M13.3072 19.6146C10.3761 19.6146 7.99995 17.2384 7.99995 14.3073C7.99995 11.3761 10.3761 9 13.3072 9C16.2384 9 18.6145 11.3761 18.6145 14.3073C18.6145 17.2384 16.2384 19.6146 13.3072 19.6146Z" fill="white"/>
<path d="M12.878 16.8981C11.4474 16.8981 10.2876 15.7383 10.2876 14.3076C10.2876 12.8769 11.4474 11.7172 12.878 11.7172C14.3087 11.7172 15.4685 12.8769 15.4685 14.3076C15.4685 15.7383 14.3087 16.8981 12.878 16.8981Z" fill="#3F3F43"/>
<path fill-rule="evenodd" clip-rule="evenodd" d="M21.9514 23.8281C22.0895 23.8268 22.2024 23.9377 22.2037 24.0757L22.2501 28.9976C22.2514 29.1357 22.1406 29.2486 22.0025 29.2499C21.8644 29.2512 21.7515 29.1404 21.7502 29.0023L21.7038 24.0804C21.7025 23.9424 21.8133 23.8294 21.9514 23.8281Z" fill="#3F3F43"/>
<path fill-rule="evenodd" clip-rule="evenodd" d="M30.8356 20.1709C30.532 19.7095 29.9119 19.5815 29.4505 19.885C26.5258 21.809 20.003 24.4231 12.4163 21.1965C11.908 20.9804 11.3208 21.2172 11.1047 21.7254C10.8885 22.2336 11.1253 22.8209 11.6335 23.037C20.0318 26.6088 27.27 23.7134 30.5497 21.5559C31.0111 21.2524 31.1391 20.6323 30.8356 20.1709Z" fill="#3F3F43"/>
</svg>
