<svg width="74" height="74" viewBox="0 0 74 74" fill="none" xmlns="http://www.w3.org/2000/svg">
<path d="M53.7205 30.2356H50.4034C49.8265 30.2356 49.3589 30.7032 49.3589 31.2801V48.3645C49.3589 48.9413 49.8265 49.409 50.4034 49.409H53.7205C54.2974 49.409 54.765 48.9413 54.765 48.3645V31.2801C54.765 30.7032 54.2974 30.2356 53.7205 30.2356Z" fill="#FFDC61"/>
<path d="M59.118 30.2356H55.8008C55.224 30.2356 54.7563 30.7032 54.7563 31.2801V48.3645C54.7563 48.9413 55.224 49.409 55.8008 49.409H59.118C59.6948 49.409 60.1625 48.9413 60.1625 48.3645V31.2801C60.1625 30.7032 59.6948 30.2356 59.118 30.2356Z" fill="#FFDC61"/>
<path d="M64.515 22H61.1978C60.621 22 60.1533 22.4676 60.1533 23.0445V40.1289C60.1533 40.7057 60.621 41.1734 61.1978 41.1734H64.515C65.0918 41.1734 65.5594 40.7057 65.5594 40.1289V23.0445C65.5594 22.4676 65.0918 22 64.515 22Z" fill="#FFDC61"/>
<path d="M65.775 31.8337H60.1558V37.4529H65.775V31.8337Z" fill="white"/>
<path d="M69.0414 31.3496H68.7509C66.8614 31.3496 65.3306 32.8805 65.3306 34.77V37.2281H49.3589V34.77C49.3589 32.8805 47.828 31.3496 45.9385 31.3496H45.6481C44.7383 31.3496 44 32.0879 44 32.9977V60.842C44 63.5976 46.2342 65.8318 48.9897 65.8318H65.7015C68.457 65.8318 70.6912 63.5976 70.6912 60.842V32.9977C70.6912 32.0879 69.9529 31.3496 69.0431 31.3496H69.0414Z" fill="#5696FC"/>
<path d="M26.8306 23.5127C15.8246 23.5127 8.47593 32.0616 4.68837 47.5402C2.07275 58.2348 6.38117 66.9026 26.8306 66.9026H26.774C47.2234 66.9026 51.5261 58.2291 48.9162 47.5402C45.1343 32.0672 37.7856 23.5127 26.774 23.5127H26.8306Z" fill="#5CBF7B"/>
<path d="M26.8062 18.7569C29.7766 18.7569 32.1846 16.3489 32.1846 13.3784C32.1846 10.408 29.7766 8 26.8062 8C23.8357 8 21.4277 10.408 21.4277 13.3784C21.4277 16.3489 23.8357 18.7569 26.8062 18.7569Z" fill="#5CBF7B"/>
<path d="M18.4951 20.3475C21.4656 20.3475 23.8736 17.9395 23.8736 14.969C23.8736 11.9986 21.4656 9.59058 18.4951 9.59058C15.5247 9.59058 13.1167 11.9986 13.1167 14.969C13.1167 17.9395 15.5247 20.3475 18.4951 20.3475Z" fill="#5CBF7B"/>
<path d="M35.1187 20.3475C38.0891 20.3475 40.4971 17.9395 40.4971 14.969C40.4971 11.9986 38.0891 9.59058 35.1187 9.59058C32.1482 9.59058 29.7402 11.9986 29.7402 14.969C29.7402 17.9395 32.1482 20.3475 35.1187 20.3475Z" fill="#5CBF7B"/>
<path d="M16.467 22.6236H37.1429L40.1265 16.9281L33.1289 14.4653L13.4834 16.9281L16.467 22.6236Z" fill="#5CBF7B"/>
<path d="M36.7438 22.6235H16.8606C15.9069 22.6235 15.1338 23.3966 15.1338 24.3503V24.5937C15.1338 25.5474 15.9069 26.3205 16.8606 26.3205H36.7438C37.6975 26.3205 38.4706 25.5474 38.4706 24.5937V24.3503C38.4706 23.3966 37.6975 22.6235 36.7438 22.6235Z" fill="#EC715B"/>
<path d="M19.9256 50.0679C19.9256 51.0936 19.2212 51.625 18.3685 51.625C17.5158 51.625 16.8237 51.0812 16.8237 50.0679V45.5078C16.5642 45.6313 16.3047 45.7055 16.0328 45.7055C15.1801 45.7055 14.5869 44.9887 14.5869 44.1607C14.5869 43.7158 14.7476 43.2833 15.1183 42.9126L17.2562 40.7994C17.6888 40.3668 18.1213 40.1567 18.5909 40.1567C19.4065 40.1567 19.9256 40.7994 19.9256 41.8869V50.0679Z" fill="white"/>
<path d="M30.6405 47.3746C30.6405 50.5135 29.1575 51.5639 26.896 51.5639H25.0423C22.7808 51.5639 21.2979 50.5011 21.2979 47.3746V44.4457C21.2979 41.3191 22.7808 40.2563 25.0423 40.2563H26.896C29.1575 40.2563 30.6405 41.3191 30.6405 44.4457V47.3746ZM26.8219 48.425C27.3903 48.425 27.5881 48.2025 27.5881 47.3004V44.5322C27.5881 43.6301 27.378 43.4076 26.8219 43.4076H25.1412C24.5727 43.4076 24.375 43.6301 24.375 44.5322V47.3004C24.375 48.2025 24.5851 48.425 25.1412 48.425H26.8219Z" fill="white"/>
<path d="M33.5076 51.564C32.4819 51.564 31.9629 51.0326 31.9629 49.9946V41.7518C31.9752 40.7631 32.6797 40.207 33.5076 40.207C34.3356 40.207 35.0647 40.7755 35.0647 41.7518V48.4375H36.7207C37.6846 48.4375 38.2037 49.1419 38.2037 49.9946C38.2037 50.8473 37.6846 51.564 36.7207 51.564H33.5076Z" fill="white"/>
</svg>
