<svg width="200" height="152" viewBox="0 0 200 152" fill="none" xmlns="http://www.w3.org/2000/svg">
<path d="M51.719 98.8571C58.6729 94.4907 67.1345 101.596 64.0462 109.202C72.1791 110.329 74.0937 121.211 66.8424 125.05C72.3461 131.138 66.8215 140.711 58.7981 138.984C59.1007 147.185 48.7141 150.967 43.6748 144.488C38.6354 150.967 28.2488 147.185 28.5514 138.984C20.528 140.706 14.9982 131.138 20.5071 125.05C13.2506 121.211 15.1704 110.329 23.3033 109.202C20.2098 101.596 28.6766 94.4959 35.6305 98.8571C38.1502 91.0476 49.2045 91.0476 51.7242 98.8571H51.719Z" fill="#FFDC61"/>
<path d="M29.7253 120.491C28.588 120.491 27.7846 121.592 28.1133 122.677C29.0523 125.771 31.9215 128.019 35.3228 128.019C38.7242 128.019 41.5934 125.771 42.5324 122.677C42.8611 121.592 42.0577 120.491 40.9204 120.491H29.7305H29.7253Z" fill="#EC715B"/>
<path d="M32.792 120.492C32.792 121.796 33.924 122.85 35.3221 122.85C36.7202 122.85 37.8522 121.791 37.8522 120.492H32.792Z" fill="white"/>
<path d="M38.1018 118.869C39.4192 118.412 39.9426 116.473 39.271 114.537C38.5993 112.602 36.9869 111.404 35.6695 111.861C34.3521 112.318 33.8287 114.258 34.5003 116.193C35.172 118.128 36.7844 119.326 38.1018 118.869Z" fill="white"/>
<path d="M38.659 118.335C39.5752 118.129 40.0444 116.747 39.7067 115.249C39.3691 113.751 38.3527 112.704 37.4364 112.91C36.5201 113.117 36.051 114.499 36.3886 115.997C36.7262 117.495 37.7427 118.542 38.659 118.335Z" fill="#2F2F48"/>
<path d="M31.6955 118.873C33.0129 118.416 33.5364 116.476 32.8647 114.541C32.1931 112.606 30.5806 111.408 29.2633 111.865C27.9459 112.322 27.4224 114.261 28.0941 116.197C28.7657 118.132 30.3782 119.33 31.6955 118.873Z" fill="white"/>
<path d="M32.2518 118.335C33.168 118.129 33.6371 116.747 33.2995 115.249C32.9619 113.751 31.9454 112.704 31.0292 112.91C30.1129 113.117 29.6438 114.499 29.9814 115.997C30.319 117.495 31.3355 118.542 32.2518 118.335Z" fill="#2F2F48"/>
<path d="M93.5682 117.06H80.0503V134.396H93.5682V117.06Z" fill="#DDE4F9"/>
<path d="M114.223 108.637L102.69 115.409L114.245 133.561L125.778 126.789L114.223 108.637Z" fill="#DDE4F9"/>
<path d="M93.5682 129.063H80.0503V134.395H93.5682V129.063Z" fill="#EC715B"/>
<path d="M122.881 122.239L111.348 129.011L114.244 133.561L125.777 126.789L122.881 122.239Z" fill="#EC715B"/>
<path d="M76.6154 134.386H93.5668V141.367C93.5668 142.837 92.321 144.034 90.7906 144.034H76.6154C73.8392 144.034 71.5928 141.867 71.5928 139.21C71.5928 136.544 73.849 134.386 76.6154 134.386Z" fill="#5696FC"/>
<path d="M111.342 135.253L125.805 126.761L129.596 132.718C130.394 133.972 129.981 135.617 128.676 136.383L116.582 143.484C114.213 144.875 111.119 144.151 109.676 141.885C108.228 139.61 108.982 136.639 111.342 135.253Z" fill="#5696FC"/>
<path d="M87.2827 46.0873L56.2493 102.01C52.4591 108.84 57.7534 117 65.9754 117H131.02C139.312 117 144.597 108.727 140.686 101.887L108.63 45.9552C104.048 37.9555 91.7547 38.031 87.2827 46.0873Z" fill="#5696FC"/>
<path d="M61.264 73.0012C61.264 73.0012 67.138 77.1024 60.2397 82.0589C52.9237 87.3168 48.7317 79.1951 48.7317 79.1951" fill="#5696FC"/>
<path d="M39.5368 73.9104C39.5368 73.9104 40.0963 74.7344 41.1168 75.7889C43.79 78.5549 49.6703 82.8865 57.03 77.9996C67.2007 71.2352 62.3135 60.1418 62.3135 60.1418C62.3135 60.1418 60.7899 56.5784 57.0438 57.5344C55.2991 57.9762 53.8743 59.2468 53.2367 60.8645C52.5991 62.4822 40.5907 61.4765 43.0336 63.1793" fill="#5696FC"/>
<path d="M44.9808 75.0257C47.0955 75.382 49.2049 74.3934 50.2049 72.5734C52.7735 67.908 57.6243 58.5669 60.6356 49.4995C61.5966 46.6193 59.9668 43.5075 57.0086 42.4435C53.6656 41.2468 48.0418 39.9915 38.6537 39.3C37.4879 39.2113 36.3389 39.687 35.6142 40.5626C34.4134 42.0341 32.7473 44.7457 32.1044 48.9486C31.6978 51.6181 33.2808 54.2437 35.9112 55.2138C37.5062 55.7948 39.7172 56.4572 42.7883 57.1391C43.8239 57.3673 44.5174 58.3164 44.3806 59.3287L42.6396 71.9862C42.4459 73.4309 43.4685 74.7727 44.9689 75.0248L44.9808 75.0257Z" fill="#DDE4F9"/>
<path d="M40.2395 74.1358C42.3879 74.2993 44.2569 72.7592 44.4139 70.6958C44.5709 68.6324 42.9566 66.8272 40.8081 66.6637C38.6596 66.5002 36.7907 68.0404 36.6337 70.1037C36.4766 72.1671 38.091 73.9723 40.2395 74.1358Z" fill="#5696FC"/>
<path d="M61.9108 60.111C61.9108 60.111 60.4371 56.6778 56.8254 57.5981C55.1419 58.0216 53.7682 59.25 53.1468 60.8116C52.5254 62.3731 52.3979 64.3629 54.762 66.0022" fill="#5696FC"/>
<path d="M42.0193 67.4344C44.1677 67.5979 46.0367 66.0578 46.1937 63.9944C46.3507 61.931 44.7363 60.1258 42.5879 59.9623C40.4394 59.7988 38.5705 61.339 38.4134 63.4023C38.2564 65.4657 39.8708 67.2709 42.0193 67.4344Z" fill="#5696FC"/>
<path d="M43.6947 45.028L38.9623 43.6447C37.7059 43.2774 36.3839 43.9565 36.0094 45.1614L35.2222 47.6939C34.8476 48.8988 35.5625 50.1733 36.8188 50.5405L41.5512 51.9239C42.8076 52.2911 44.1296 51.612 44.5042 50.4071L45.2913 47.8746C45.6659 46.6697 44.951 45.3953 43.6947 45.028Z" fill="#5CBF7B"/>
<ellipse cx="86.3438" cy="69.5174" rx="3.63926" ry="5.43687" fill="white"/>
<ellipse cx="85.1308" cy="69.5175" rx="2.42617" ry="3.88348" fill="#3F3F43"/>
<ellipse cx="98.6397" cy="69.5174" rx="3.63926" ry="5.43687" fill="white"/>
<ellipse cx="97.4267" cy="69.5175" rx="2.42617" ry="3.88348" fill="#3F3F43"/>
<path fill-rule="evenodd" clip-rule="evenodd" d="M95.9862 77.8176C96.3046 78.2689 96.1969 78.8928 95.7456 79.2112C94.4609 80.1177 92.8676 80.6546 91.4529 80.9683C90.0292 81.2839 88.703 81.3915 87.8901 81.3915C87.3379 81.3915 86.8901 80.9437 86.8901 80.3915C86.8901 79.8392 87.3379 79.3915 87.8901 79.3915C88.56 79.3915 89.741 79.2993 91.02 79.0157C92.3079 78.7302 93.6127 78.2684 94.5925 77.577C95.0438 77.2586 95.6677 77.3663 95.9862 77.8176Z" fill="#3F3F43"/>
<rect x="94.1289" y="31.4565" width="7.27894" height="22.9693" fill="#FFDC61"/>
<path d="M183.022 77.6897H140.64C139.546 77.6897 138.659 78.5766 138.659 79.6705C138.659 80.7645 139.546 81.6514 140.64 81.6514H183.022C184.116 81.6514 185.003 80.7645 185.003 79.6705C185.003 78.5766 184.116 77.6897 183.022 77.6897Z" fill="#DDE4F9"/>
<path d="M148.298 73.5115C142.959 75.6088 140.556 82.7037 146.061 89.5551C152.006 96.9606 147.785 102.077 142.27 104.195H158.857C164.367 102.077 168.593 96.9606 162.648 89.5551C157.143 82.7037 159.546 75.6037 164.885 73.5115H148.298Z" fill="#FFDC61"/>
<path d="M146.381 104.315L146.288 104.071C149.654 102.777 151.974 100.586 152.658 98.0589C153.347 95.5058 152.461 92.6731 150.022 89.6384C147.298 86.2412 146.288 82.528 147.179 79.1774C147.888 76.5052 149.763 74.3975 152.316 73.3928L152.409 73.631C149.934 74.6046 148.116 76.645 147.427 79.2396C146.557 82.5073 147.552 86.1428 150.224 89.4727C152.715 92.5747 153.621 95.4903 152.906 98.1263C152.202 100.736 149.825 102.989 146.381 104.315Z" fill="#3F3F43"/>
<path d="M150.333 104.315L150.24 104.072C153.606 102.777 155.926 100.586 156.61 98.0592C157.299 95.5061 156.413 92.6733 153.974 89.6386C151.25 86.2414 150.24 82.5283 151.131 79.1777C151.84 76.5055 153.715 74.3977 156.268 73.3931L156.361 73.6313C153.886 74.6049 152.068 76.6453 151.38 79.2398C150.51 82.5076 151.504 86.143 154.176 89.4729C156.667 92.5749 157.573 95.4905 156.859 98.1265C156.154 100.737 153.777 102.989 150.333 104.315Z" fill="#3F3F43"/>
<path d="M154.108 104.315L154.015 104.072C157.381 102.777 159.701 100.586 160.384 98.0592C161.073 95.5061 160.188 92.6733 157.748 89.6386C155.024 86.2414 154.015 82.5283 154.905 79.1777C155.615 76.5055 157.49 74.3977 160.043 73.3931L160.136 73.6313C157.66 74.6049 155.843 76.6453 155.154 79.2398C154.284 82.5076 155.278 86.143 157.95 89.4729C160.441 92.5749 161.348 95.4905 160.633 98.1265C159.929 100.737 157.552 102.989 154.108 104.315Z" fill="#3F3F43"/>
<path d="M162.544 144.635H139.856C136.469 144.635 133.611 142.108 133.202 138.747L128.748 102.573H173.658L169.204 138.747C168.79 142.108 165.936 144.635 162.549 144.635H162.544Z" fill="#EC715B"/>
<path d="M174.233 100.59H128.179C127.086 100.59 126.201 101.476 126.201 102.568V102.574C126.201 103.666 127.086 104.552 128.179 104.552H174.233C175.326 104.552 176.211 103.666 176.211 102.574V102.568C176.211 101.476 175.326 100.59 174.233 100.59Z" fill="white"/>
<path d="M182.546 67.6097L140.499 72.9364C139.414 73.0738 138.646 74.0651 138.783 75.1504C138.921 76.2358 139.912 77.0041 140.997 76.8666L183.044 71.54C184.129 71.4025 184.897 70.4113 184.76 69.3259C184.622 68.2406 183.631 67.4723 182.546 67.6097Z" fill="#DDE4F9"/>
<path d="M137.276 119.414C139.679 119.414 141.626 117.466 141.626 115.064C141.626 112.661 139.679 110.714 137.276 110.714C134.874 110.714 132.926 112.661 132.926 115.064C132.926 117.466 134.874 119.414 137.276 119.414Z" fill="white"/>
<path d="M137.277 117.188C138.449 117.188 139.4 116.238 139.4 115.065C139.4 113.892 138.449 112.942 137.277 112.942C136.104 112.942 135.153 113.892 135.153 115.065C135.153 116.238 136.104 117.188 137.277 117.188Z" fill="#3F3F43"/>
<path d="M147.431 119.414C149.834 119.414 151.781 117.466 151.781 115.064C151.781 112.661 149.834 110.714 147.431 110.714C145.029 110.714 143.081 112.661 143.081 115.064C143.081 117.466 145.029 119.414 147.431 119.414Z" fill="white"/>
<path d="M147.432 117.188C148.605 117.188 149.555 116.238 149.555 115.065C149.555 113.892 148.605 112.942 147.432 112.942C146.259 112.942 145.309 113.892 145.309 115.065C145.309 116.238 146.259 117.188 147.432 117.188Z" fill="#3F3F43"/>
<path d="M151.216 120.335L142.972 122.043C142.475 122.146 142.155 122.633 142.258 123.13C142.361 123.628 142.848 123.948 143.346 123.845L151.589 122.138C152.087 122.035 152.407 121.548 152.304 121.05C152.201 120.552 151.714 120.232 151.216 120.335Z" fill="#3F3F43"/>
<path d="M122.948 37.8947C118.694 27.5919 120.308 29.201 110 24.9474C120.303 20.6938 118.694 22.3075 122.948 12C127.201 22.3029 125.588 20.6938 135.895 24.9474C125.592 29.201 127.201 27.5872 122.948 37.8947Z" fill="#5CBF7B"/>
<path d="M135.583 53.0001C132.645 45.8773 133.754 46.9935 126.639 44.0562C133.761 41.119 132.645 42.2278 135.583 35.1123C138.52 42.2351 137.411 41.119 144.526 44.0562C137.404 46.9935 138.52 45.8846 135.583 53.0001Z" fill="#5CBF7B"/>
</svg>
