<svg width="92" height="80" viewBox="0 0 92 80" fill="none" xmlns="http://www.w3.org/2000/svg">
<ellipse cx="40.2333" cy="64.2639" rx="27.8002" ry="11.0557" transform="rotate(9.40614 40.2333 64.2639)" fill="#DDE4F9"/>
<path d="M60.9978 63.5091C58.3632 66.6897 54.262 68.194 49.7104 68.0058C45.1584 67.8175 40.1863 65.9336 35.8909 62.3756C31.5955 58.8176 28.8188 54.2832 27.7864 49.8458C26.7542 45.4089 27.4686 41.0993 30.1032 37.9186C32.7378 34.738 36.839 33.2337 41.3906 33.4219C45.9426 33.6102 50.9147 35.4942 55.2101 39.0521C59.5055 42.6101 62.2822 47.1445 63.3146 51.5819C64.3468 56.0189 63.6324 60.3285 60.9978 63.5091Z" fill="#5696FC" stroke="#5696FC"/>
<path d="M64.7318 16.1509L64.3467 15.8319L64.0278 16.217L57.4947 24.1041C57.0089 18.6885 60.5827 13.6092 66.0308 12.3568C71.9807 10.989 77.9129 14.7036 79.2807 20.6535C80.6484 26.6034 76.9339 32.5356 70.984 33.9034C70.1844 34.0872 69.3851 34.1792 68.5972 34.1863L75.5654 25.7738L75.8844 25.3888L75.4993 25.0698L64.7318 16.1509ZM56.9015 26.388C58.1983 31.0218 62.0736 34.3073 66.5957 35.035L63.9576 38.22C62.7407 36.6111 61.2941 35.0901 59.6322 33.7135C57.8084 32.2028 55.862 30.9793 53.8701 30.0478L56.9015 26.388ZM67.3483 34.1264C62.7833 33.6456 58.8201 30.3307 57.7341 25.6067C57.7206 25.5478 57.7075 25.4889 57.695 25.4301L64.479 17.24L74.4764 25.521L67.3483 34.1264ZM58.9943 34.4836C60.6639 35.8666 62.104 37.3971 63.3015 39.012L56.8305 46.8243L46.8331 38.5432L53.2101 30.8446C55.2045 31.7515 57.161 32.9651 58.9943 34.4836ZM52.252 30.4335L45.744 38.2904L45.4251 38.6755L45.8101 38.9944L56.5777 47.9133L56.9627 48.2323L57.2817 47.8472L63.9005 39.8566C65.4588 42.1556 66.537 44.5989 67.0987 47.0134C68.131 51.4504 67.4165 55.76 64.782 58.9406C62.1474 62.1213 58.0461 63.6255 53.4946 63.4373C48.9425 63.2491 43.9705 61.3651 39.6751 57.8071C35.3797 54.2492 32.603 49.7147 31.5706 45.2773C30.5383 40.8404 31.2528 36.5308 33.8874 33.3501C36.522 30.1695 40.6232 28.6652 45.1748 28.8534C47.4738 28.9485 49.88 29.4761 52.252 30.4335Z" fill="#FFDC61" stroke="#FFDC61"/>
</svg>
