<svg width="92" height="80" viewBox="0 0 92 80" fill="none" xmlns="http://www.w3.org/2000/svg">
<ellipse cx="50" cy="58.9583" rx="28" ry="17.5" fill="#5696FC"/>
<ellipse cx="49.9123" cy="54.4138" rx="20.5583" ry="15.6428" fill="#FFDC61"/>
<path d="M42.4146 16.0645H56.3962V44.7269H42.4146V16.0645Z" fill="white"/>
<path d="M61.2189 18.5282C61.2189 24.9094 56.0459 30.0824 49.6646 30.0824C43.2834 30.0824 38.1104 24.9094 38.1104 18.5282C38.1104 12.1469 43.2834 6.97388 49.6646 6.97388C56.0459 6.97388 61.2189 12.1469 61.2189 18.5282Z" fill="white"/>
<path d="M70.416 48.4825C70.416 57.1217 61.2117 64.1253 49.8576 64.1253C38.5036 64.1253 29.2993 57.1217 29.2993 48.4825C29.2993 39.8432 38.5036 32.8397 49.8576 32.8397C61.2117 32.8397 70.416 39.8432 70.416 48.4825Z" fill="white"/>
</svg>
