<svg width="16" height="16" viewBox="0 0 16 16" fill="none" xmlns="http://www.w3.org/2000/svg" aria-labelledby="title" role="img">
<title id="title">전화 걸기</title>
<path d="M14.6463 12.2207C14.6463 12.4607 14.593 12.7073 14.4797 12.9473C14.3663 13.1873 14.2197 13.414 14.0263 13.6273C13.6997 13.9873 13.3397 14.2473 12.933 14.414C12.533 14.5807 12.0997 14.6673 11.633 14.6673C10.953 14.6673 10.2263 14.5073 9.45967 14.1807C8.69301 13.854 7.92634 13.414 7.16634 12.8607C6.39967 12.3007 5.67301 11.6807 4.97967 10.994C4.29301 10.3007 3.67301 9.57398 3.11967 8.81398C2.57301 8.05398 2.13301 7.29398 1.81301 6.54065C1.49301 5.78065 1.33301 5.05398 1.33301 4.36065C1.33301 3.90732 1.41301 3.47398 1.57301 3.07398C1.73301 2.66732 1.98634 2.29398 2.33967 1.96065C2.76634 1.54065 3.23301 1.33398 3.72634 1.33398C3.91301 1.33398 4.09967 1.37398 4.26634 1.45398C4.43967 1.53398 4.59301 1.65398 4.71301 1.82732L6.25967 4.00732C6.37967 4.17398 6.46634 4.32732 6.52634 4.47398C6.58634 4.61398 6.61967 4.75398 6.61967 4.88065C6.61967 5.04065 6.57301 5.20065 6.47967 5.35398C6.39301 5.50732 6.26634 5.66732 6.10634 5.82732L5.59967 6.35398C5.52634 6.42732 5.49301 6.51398 5.49301 6.62065C5.49301 6.67398 5.49967 6.72065 5.51301 6.77398C5.53301 6.82732 5.55301 6.86732 5.56634 6.90732C5.68634 7.12732 5.89301 7.41398 6.18634 7.76065C6.48634 8.10732 6.80634 8.46065 7.15301 8.81398C7.51301 9.16732 7.85967 9.49398 8.21301 9.79398C8.55967 10.0873 8.84634 10.2873 9.07301 10.4073C9.10634 10.4207 9.14634 10.4407 9.19301 10.4607C9.24634 10.4807 9.29967 10.4873 9.35967 10.4873C9.47301 10.4873 9.55967 10.4473 9.63301 10.374L10.1397 9.87398C10.3063 9.70732 10.4663 9.58065 10.6197 9.50065C10.773 9.40732 10.9263 9.36065 11.093 9.36065C11.2197 9.36065 11.353 9.38732 11.4997 9.44732C11.6463 9.50732 11.7997 9.59398 11.9663 9.70732L14.173 11.274C14.3463 11.394 14.4663 11.534 14.5397 11.7006C14.6063 11.8673 14.6463 12.034 14.6463 12.2207Z" stroke="#66666E" stroke-width="1.5" stroke-miterlimit="10"/>
<path d="M12.3328 6.00033C12.3328 5.60033 12.0195 4.98699 11.5528 4.48699C11.1262 4.02699 10.5595 3.66699 9.99951 3.66699" stroke="#66666E" stroke-width="1.5" stroke-linecap="round" stroke-linejoin="round"/>
<path d="M14.6662 6.00065C14.6662 3.42065 12.5795 1.33398 9.99951 1.33398" stroke="#66666E" stroke-width="1.5" stroke-linecap="round" stroke-linejoin="round"/>
</svg>
