<svg width="24" height="24" viewBox="0 0 24 24" fill="none" xmlns="http://www.w3.org/2000/svg">
<path d="M9 12C9 13.6569 10.3431 15 12 15C13.6569 15 15 13.6569 15 12C15 10.3431 13.6569 9 12 9C10.3431 9 9 10.3431 9 12Z" stroke="#66666E" stroke-width="1.5" stroke-miterlimit="10" stroke-linecap="round" stroke-linejoin="round"/>
<path d="M11.1201 2L12.8801 2C13.9201 2 14.7801 2.85 14.7801 3.9C14.7801 5.71 16.0601 6.45 17.6301 5.54C18.5301 5.02 19.7001 5.33 20.2201 6.24L21.2101 7.97C21.6801 8.76 21.4001 9.78 20.6101 10.25L20.4201 10.36C18.8501 11.26 18.8501 12.74 20.4201 13.65L20.6101 13.76C21.4001 14.23 21.6801 15.25 21.2101 16.04L20.2201 17.77C19.7001 18.68 18.5301 18.99 17.6301 18.47C16.0601 17.56 14.7801 18.3 14.7801 20.11C14.7801 21.15 13.9301 22.01 12.8801 22.01L11.1201 22.01C10.0801 22.01 9.22006 21.16 9.22006 20.11C9.22006 18.3 7.94006 17.56 6.37006 18.47C5.46006 18.99 4.30006 18.68 3.78006 17.77L2.79006 16.04C2.32006 15.25 2.60006 14.23 3.39006 13.76L3.58006 13.65C5.15006 12.75 5.15006 11.27 3.58006 10.36L3.39006 10.25C2.60006 9.78 2.32006 8.76 2.79006 7.97L3.78006 6.24C4.30006 5.33 5.47006 5.02 6.37006 5.54C7.94006 6.45 9.22006 5.71 9.22006 3.9C9.22006 2.85 10.0801 2 11.1201 2Z" stroke="#66666E" stroke-width="1.5" stroke-miterlimit="10" stroke-linecap="round" stroke-linejoin="round"/>
</svg>
