<svg width="24" height="24" viewBox="0 0 24 24" fill="none" xmlns="http://www.w3.org/2000/svg">
<rect width="24" height="24" rx="5" fill="white"/>
<path d="M5.45166 9.9248H18.5486V16.2474C18.5486 17.2451 17.7398 18.0539 16.7421 18.0539H7.25813C6.26044 18.0539 5.45166 17.2451 5.45166 16.2474V9.9248Z" fill="#FFDC61"/>
<path fill-rule="evenodd" clip-rule="evenodd" d="M7.79562 5.75684C7.02934 5.75684 6.34644 6.24029 6.09181 6.96303L5.20079 9.49207C5.07257 9.73539 5 10.0126 5 10.3067C5 11.2733 5.7835 12.0568 6.75 12.0568C7.59664 12.0568 8.30285 11.4555 8.465 10.6567H8.5351C8.69724 11.4555 9.40345 12.0568 10.2501 12.0568C11.0967 12.0568 11.8029 11.4555 11.9651 10.6567H12.0352C12.1973 11.4555 12.9035 12.0568 13.7502 12.0568C14.5968 12.0568 15.303 11.4555 15.4652 10.6567H15.535C15.6972 11.4555 16.4034 12.0568 17.25 12.0568C18.2165 12.0568 19 11.2733 19 10.3067C19 10.1869 18.988 10.0699 18.9651 9.9569H18.9673L18.9619 9.94155C18.93 9.79149 18.8789 9.64854 18.8113 9.5154L17.9091 6.96155C17.654 6.23957 16.9715 5.75684 16.2058 5.75684H7.79562Z" fill="#5696FC"/>
</svg>
