<svg width="36" height="36" viewBox="0 0 36 36" fill="none" xmlns="http://www.w3.org/2000/svg">
<rect width="36" height="36" rx="8" fill="#F8F8FA"/>
<path d="M14.3201 9.64587H12.3429C11.9991 9.64587 11.7203 9.92461 11.7203 10.2684V20.4517C11.7203 20.7955 11.9991 21.0742 12.3429 21.0742H14.3201C14.6639 21.0742 14.9427 20.7955 14.9427 20.4517V10.2684C14.9427 9.92461 14.6639 9.64587 14.3201 9.64587Z" fill="#FFDC61"/>
<path d="M17.5374 9.64587H15.5602C15.2164 9.64587 14.9376 9.92461 14.9376 10.2684V20.4517C14.9376 20.7955 15.2164 21.0742 15.5602 21.0742H17.5374C17.8812 21.0742 18.16 20.7955 18.16 20.4517V10.2684C18.16 9.92461 17.8812 9.64587 17.5374 9.64587Z" fill="#FFDC61"/>
<path d="M20.7542 4.73682H18.777C18.4332 4.73682 18.1544 5.01555 18.1544 5.35938V15.5426C18.1544 15.8864 18.4332 16.1652 18.777 16.1652H20.7542C21.098 16.1652 21.3768 15.8864 21.3768 15.5426V5.35938C21.3768 5.01555 21.098 4.73682 20.7542 4.73682Z" fill="#FFDC61"/>
<path d="M21.5052 10.598H18.1558V13.9473H21.5052V10.598Z" fill="#DDE4F9"/>
<path d="M23.4524 10.3101H23.2793C22.153 10.3101 21.2405 11.2225 21.2405 12.3488V13.814H11.7206V12.3488C11.7206 11.2225 10.8081 10.3101 9.68182 10.3101H9.50871C8.96644 10.3101 8.52637 10.7501 8.52637 11.2924V27.8891C8.52637 29.5316 9.85806 30.8633 11.5005 30.8633H21.4616C23.1041 30.8633 24.4358 29.5316 24.4358 27.8891V11.2924C24.4358 10.7501 23.9957 10.3101 23.4534 10.3101H23.4524Z" fill="#5696FC"/>
<path d="M30.7114 11.8575L29.1254 10.6769C28.8496 10.4716 28.4595 10.5288 28.2542 10.8046L22.1738 18.9732C21.9685 19.249 22.0257 19.639 22.3015 19.8443L23.8875 21.0249C24.1633 21.2302 24.5534 21.1731 24.7587 20.8973L30.8391 12.7286C31.0444 12.4528 30.9872 12.0628 30.7114 11.8575Z" fill="#FFDC61"/>
<path d="M27.0515 16.075L26.1034 15.3693C25.6604 15.0395 25.0339 15.1314 24.7042 15.5744L16.8738 26.0939C16.5441 26.5369 16.6359 27.1634 17.0789 27.4932L18.0269 28.1989C18.47 28.5287 19.0964 28.4368 19.4262 27.9938L27.2566 17.4743C27.5863 17.0313 27.4945 16.4048 27.0515 16.075Z" fill="#DDE4F9"/>
</svg>
