<svg width="29" height="28" viewBox="0 0 29 28" fill="none" xmlns="http://www.w3.org/2000/svg">
<path d="M28.0297 7.29626L23.7274 24.7407L19.3335 1.11108L25.0531 2.44263C27.2246 2.94816 28.5636 5.13154 28.0297 7.29626Z" fill="#E1E1E5"/>
<path d="M20.4736 0.0371094H3.15606C1.41302 0.0371094 0 1.43865 0 3.16754V24.8326C0 26.5615 1.41302 27.963 3.15606 27.963H20.4736C22.2166 27.963 23.6296 26.5615 23.6296 24.8326V3.16754C23.6296 1.43865 22.2166 0.0371094 20.4736 0.0371094Z" fill="white"/>
<path fill-rule="evenodd" clip-rule="evenodd" d="M3.97021 6.98022C3.97021 6.28987 4.52986 5.73022 5.22021 5.73022H18.5602C19.2505 5.73022 19.8102 6.28987 19.8102 6.98022C19.8102 7.67058 19.2505 8.23022 18.5602 8.23022H5.22021C4.52986 8.23022 3.97021 7.67058 3.97021 6.98022Z" fill="#E1E1E5"/>
<path fill-rule="evenodd" clip-rule="evenodd" d="M3.97021 11.0234C3.97021 10.3331 4.52986 9.77344 5.22021 9.77344H18.5602C19.2505 9.77344 19.8102 10.3331 19.8102 11.0234C19.8102 11.7138 19.2505 12.2734 18.5602 12.2734H5.22021C4.52986 12.2734 3.97021 11.7138 3.97021 11.0234Z" fill="#E1E1E5"/>
<path fill-rule="evenodd" clip-rule="evenodd" d="M3.97021 15.0664C3.97021 14.3761 4.52986 13.8164 5.22021 13.8164H18.5602C19.2505 13.8164 19.8102 14.3761 19.8102 15.0664C19.8102 15.7568 19.2505 16.3164 18.5602 16.3164H5.22021C4.52986 16.3164 3.97021 15.7568 3.97021 15.0664Z" fill="#E1E1E5"/>
<path fill-rule="evenodd" clip-rule="evenodd" d="M3.97021 19.1101C3.97021 18.4198 4.52986 17.8601 5.22021 17.8601H13.0443C13.7347 17.8601 14.2943 18.4198 14.2943 19.1101C14.2943 19.8005 13.7347 20.3601 13.0443 20.3601H5.22021C4.52986 20.3601 3.97021 19.8005 3.97021 19.1101Z" fill="#E1E1E5"/>
</svg>
