<svg width="28" height="28" viewBox="0 0 28 28" fill="none" xmlns="http://www.w3.org/2000/svg">
<circle cx="14" cy="14" r="14" fill="#E1E1E5"/>
<path d="M12.5012 16.9301H14.9642C14.6778 14.2427 18 13.3469 18 10.6404C18 8.1817 16.3198 7 14.0095 7C12.3484 7 10.9928 7.78145 10 8.90597L11.5465 10.3355C12.1766 9.68742 12.8449 9.26811 13.685 9.26811C14.6778 9.26811 15.3079 9.85896 15.3079 10.831C15.3079 12.6417 12.043 13.8615 12.5012 16.9301ZM13.7422 22C14.7351 22 15.4988 21.2186 15.4988 20.1703C15.4988 19.122 14.7351 18.3596 13.7422 18.3596C12.7303 18.3596 12.0048 19.122 12.0048 20.1703C12.0048 21.2186 12.7303 22 13.7422 22Z" fill="white"/>
</svg>
