<svg width="30" height="28" viewBox="0 0 30 28" fill="none" xmlns="http://www.w3.org/2000/svg">
<path d="M11.4534 0.103027C11.4534 0.103027 15.1131 4.16308 18.5901 0.103027L29.2955 3.41427C29.7144 3.54384 30 3.93116 30 4.36962V10.6563C30 11.1474 29.6434 11.5658 29.1585 11.6436L25.309 12.2614L15.0218 13.0708L0.900268 11.6554C0.389165 11.6042 0 11.1741 0 10.6604V4.37045C0 3.93159 0.286133 3.54402 0.705531 3.41479L11.4534 0.103027Z" fill="white"/>
<path d="M15.0042 27.6316H23.3168C25.6451 27.6316 27.4814 25.6508 27.3053 23.3291L26.4435 11.9643C22.3787 8.73736 23.223 1.55174 23.223 1.55174C22.2047 0.819954 18.4793 0 18.4793 0C18.7042 5.22831 15 12.2596 15 12.2596V27.6316H15.0042Z" fill="#E1E1E5"/>
<path d="M15.0002 27.6316H6.68356C4.35521 27.6316 2.51891 25.6507 2.69503 23.329L3.55711 11.9643C7.62332 8.73736 6.77443 1.55174 6.77443 1.55174C7.7931 0.819954 11.5198 0 11.5198 0C11.2948 5.22831 15.0002 12.2596 15.0002 12.2596V27.6316Z" fill="#E1E1E5"/>
<path fill-rule="evenodd" clip-rule="evenodd" d="M17.7402 10.8124C17.7402 10.343 18.1208 9.9624 18.5902 9.9624H22.4719C22.9413 9.9624 23.3219 10.343 23.3219 10.8124C23.3219 11.2818 22.9413 11.6624 22.4719 11.6624H18.5902C18.1208 11.6624 17.7402 11.2818 17.7402 10.8124Z" fill="white"/>
</svg>
