<svg width="40" height="40" viewBox="0 0 40 40" fill="none" xmlns="http://www.w3.org/2000/svg">
<rect width="40" height="40" rx="8" fill="#F8F8FA"/>
<path d="M19.9017 31C21.8022 31 23.4682 30.603 25.0637 29.7155L24.2894 27.8238C23.1866 28.431 21.638 28.8981 20.1832 28.8981C15.9363 28.8981 12.3464 26.259 12.3464 21.051C12.3464 15.0255 16.8983 11.1253 21.4972 11.1253C26.6123 11.1253 28.7944 14.4416 28.7944 18.3652C28.7944 21.4013 27.1285 23.3397 25.486 23.3397C24.2425 23.3397 23.7966 22.5223 24.219 20.8174L25.3922 15.1423H23.257L22.8816 16.2399H22.8346C22.3654 15.3291 21.6615 14.9321 20.7933 14.9321C17.7196 14.9321 15.467 18.2017 15.467 21.3079C15.467 23.7367 16.8749 25.2548 18.8927 25.2548C20.019 25.2548 21.333 24.5074 22.1073 23.4798H22.1777C22.4123 24.7877 23.6324 25.4883 25.1575 25.4883C27.8324 25.4883 31 23.0594 31 18.2718C31 12.8068 27.4101 9 21.7788 9C15.3966 9 10 13.811 10 21.1444C10 27.7771 14.6223 31 19.9017 31ZM19.6201 23.0594C18.705 23.0594 18.095 22.4522 18.095 21.121C18.095 19.4161 19.1743 17.1507 20.8872 17.1507C21.4972 17.1507 21.9196 17.4076 22.248 18.0149L21.5911 21.7516C20.8402 22.7091 20.2302 23.0594 19.6201 23.0594Z" fill="#5696FC"/>
<path fill-rule="evenodd" clip-rule="evenodd" d="M25.3158 29.804L25.1607 29.8903C23.5325 30.7959 21.8326 31.2 19.9015 31.2C17.2226 31.2 14.6962 30.3822 12.8371 28.7081C10.9745 27.0309 9.7998 24.5105 9.7998 21.1444C9.7998 13.6981 15.2884 8.79999 21.7786 8.79999C24.6407 8.79999 27 9.76845 28.6438 11.4466C30.287 13.1241 31.1998 15.4949 31.1998 18.2718C31.1998 23.1568 27.9553 25.6883 25.1573 25.6883C23.7085 25.6883 22.4573 25.0705 22.0639 23.8501C21.2457 24.7874 19.9986 25.4548 18.8925 25.4548C17.8305 25.4548 16.918 25.0537 16.2732 24.3246C15.6301 23.5976 15.2668 22.5603 15.2668 21.3078C15.2668 19.7092 15.8455 18.0719 16.8201 16.8316C17.7953 15.5904 19.1803 14.732 20.7931 14.732C21.2586 14.732 21.6894 14.8389 22.0689 15.0745C22.3542 15.2517 22.6039 15.4977 22.8157 15.8138L23.1138 14.9422H25.6376L24.4131 20.8655C24.2049 21.7058 24.2256 22.2758 24.4056 22.6266C24.5734 22.9538 24.9084 23.1397 25.4858 23.1397C26.2256 23.1397 26.9981 22.7017 27.5936 21.8741C28.1875 21.0488 28.5942 19.8475 28.5942 18.3652C28.5942 16.4384 28.0585 14.6809 26.915 13.4075C25.7748 12.1378 24.0089 11.3253 21.497 11.3253C17.0103 11.3253 12.5462 15.1342 12.5462 21.0509C12.5462 23.6061 13.4252 25.5119 14.8072 26.7802C16.1921 28.051 18.0999 28.6981 20.183 28.6981C21.6002 28.6981 23.1159 28.2415 24.1927 27.6486L24.3893 27.5403L25.3158 29.804ZM22.8814 16.2399H22.8344C22.8311 16.2334 22.8277 16.2269 22.8243 16.2204C22.7947 16.1638 22.7641 16.1092 22.7327 16.0565C22.266 15.2756 21.6006 14.932 20.7931 14.932C17.7194 14.932 15.4668 18.2017 15.4668 21.3078C15.4668 23.7367 16.8747 25.2548 18.8925 25.2548C19.9687 25.2548 21.2162 24.5725 22.0006 23.6153C22.0332 23.5755 22.065 23.5352 22.096 23.4944C22.0997 23.4896 22.1034 23.4847 22.1071 23.4798H22.1775C22.1812 23.5007 22.1852 23.5213 22.1894 23.5419C22.1979 23.5831 22.2075 23.6238 22.2179 23.6638C22.5298 24.8533 23.7053 25.4883 25.1573 25.4883C27.8322 25.4883 30.9998 23.0594 30.9998 18.2718C30.9998 12.8068 27.4099 8.99999 21.7786 8.99999C15.3965 8.99999 9.9998 13.811 9.9998 21.1444C9.9998 27.7771 14.6222 31 19.9015 31C21.802 31 23.468 30.603 25.0635 29.7155L24.2892 27.8238C24.2313 27.8557 24.1721 27.8872 24.1118 27.9183C23.0239 28.4788 21.5614 28.8981 20.183 28.8981C15.9361 28.8981 12.3462 26.259 12.3462 21.0509C12.3462 15.0255 16.8981 11.1253 21.497 11.1253C26.6121 11.1253 28.7942 14.4416 28.7942 18.3652C28.7942 21.4013 27.1283 23.3397 25.4858 23.3397C24.2423 23.3397 23.7965 22.5223 24.2188 20.8174L25.392 15.1422H23.2568L22.8814 16.2399ZM18.6674 22.4609C18.889 22.7251 19.2091 22.8594 19.6199 22.8594C20.1306 22.8594 20.6807 22.5763 21.4026 21.6673L22.0386 18.0502C21.8948 17.8007 21.739 17.6328 21.5665 17.5244C21.382 17.4084 21.1627 17.3507 20.887 17.3507C20.128 17.3507 19.4839 17.8524 19.0185 18.602C18.5545 19.3493 18.2948 20.3053 18.2948 21.121C18.2948 21.7594 18.4414 22.1914 18.6674 22.4609ZM21.5909 21.7516L22.2478 18.0148C21.9194 17.4076 21.497 17.1507 20.887 17.1507C19.1741 17.1507 18.0948 19.4161 18.0948 21.121C18.0948 22.4522 18.7048 23.0594 19.6199 23.0594C20.23 23.0594 20.84 22.7091 21.5909 21.7516Z" fill="#5696FC"/>
</svg>
