<svg width="30" height="29" viewBox="0 0 30 29" fill="none" xmlns="http://www.w3.org/2000/svg">
<rect x="24.3745" y="7.5" width="5.62494" height="8.7499" rx="2" fill="#5696FC"/>
<path fill-rule="evenodd" clip-rule="evenodd" d="M8.75003 6.78564V16.6527L8.7499 16.6527V6.87467H2.49716C1.11767 6.87467 0 7.99085 0 9.36852V15.0057C0 16.3834 1.11767 17.4995 2.49716 17.4995H5.66687L7.1512 27.7697C7.23362 28.3335 7.69974 28.7498 8.24829 28.7498H11.3918C12.0654 28.7498 12.5826 28.1328 12.4888 27.442L11.279 18.3672L24.2167 23.6184C25.4113 24.0971 26.7104 23.208 26.7104 21.9113V1.83802C26.7104 0.535627 25.4028 -0.353531 24.2054 0.136646L8.75003 6.78564Z" fill="#FFDC61"/>
</svg>
