<svg width="31" height="28" viewBox="0 0 31 28" fill="none" xmlns="http://www.w3.org/2000/svg">
<path d="M1 9.22949H30V23.2295C30 25.4386 28.2091 27.2295 26 27.2295H5C2.79086 27.2295 1 25.4386 1 23.2295V9.22949Z" fill="white"/>
<path fill-rule="evenodd" clip-rule="evenodd" d="M6.19025 0C4.49351 0 2.98139 1.07048 2.41756 2.6708L0.444593 8.27069C0.160692 8.80946 0 9.42325 0 10.0746C0 12.2147 1.73489 13.9495 3.87497 13.9495C5.74965 13.9495 7.3134 12.6183 7.67243 10.8496H7.82766C8.18669 12.6183 9.75044 13.9495 11.6251 13.9495C13.4998 13.9495 15.0635 12.6183 15.4226 10.8496H15.5778C15.9368 12.6183 17.5006 13.9495 19.3753 13.9495C21.2499 13.9495 22.8137 12.6183 23.1727 10.8496H23.3274C23.6865 12.6183 25.2502 13.9495 27.1249 13.9495C29.265 13.9495 30.9999 12.2147 30.9999 10.0746C30.9999 9.80929 30.9732 9.55023 30.9224 9.29994H30.9274L30.9154 9.26594C30.8448 8.93368 30.7317 8.61715 30.582 8.32234L28.5841 2.66752C28.0194 1.06889 26.5081 0 24.8126 0H6.19025Z" fill="#5696FC"/>
</svg>
